<svg xmlns="http://www.w3.org/2000/svg" version="1.1" width="600px" height="600px" viewBox="0 0 200 200" style="overflow:hidden!important;"><g id="svga-group-wrapper"><g id="svga-group-backs-single"><path id="SvgjsPath3872" d="M0 0h200v200H0V0z" fill="#ecf0f1" stroke-width="none" opacity="1" style="--darkreader-inline-fill:#1e2729;"></path></g><g id="svga-group-humanwrap-move" transform="matrix(1,0,0,1,0,0)"><g id="svga-group-humanwrap"><g id="svga-group-hair-back-move" transform="matrix(1,0,0,1,0,0)"><g id="svga-group-hair-back"></g></g><g id="svga-group-humanbody-back"><path id="SvgjsPath3657" d="M77.6 118.3c0 19.3 3.4 44.1-10 51.9-13.4 7.9-31.9 11.3-37.8 22s-4.4 25.3-4.4 25.3h149.3s.7-18.9-5.1-26.4c-8.1-10.4-27.8-15.5-37.7-20.9s-13.4-25.1-13.4-52.4l-40.9.5z" fill="#ffffff" stroke-width="none" opacity="1" style="--darkreader-inline-fill:#181a1b;"></path></g><g id="svga-group-chinshadow-single"></g><g id="svga-group-humanbody-front"><path id="SvgjsPath3658" d="M175.8 218.7H24.4l-.1-1c-.1-.6-1.5-15.1 4.5-26 4.1-7.4 13.5-11.3 23.5-15.5 5-2.1 10.2-4.3 14.8-6.9 10.6-6.2 10.1-23.9 9.6-41-.1-3.5-.2-6.8-.2-10v-1.1l43.2-.4v1.1c0 29.9 4.2 46.7 12.8 51.4 2.9 1.6 6.7 3.2 10.8 4.9 10 4.1 21.3 8.8 27.2 16.3 6.1 7.7 5.4 26.4 5.4 27.1l-.1 1.1zm-149.3-2.2h147.1c0-4.1-.2-18.5-4.9-24.6-5.5-7-16.6-11.6-26.3-15.6-4.1-1.7-8-3.3-11-5-5.1-2.8-8.7-8.9-10.9-18.7-2-8.4-2.9-19.4-3-33.5l-38.6.4c0 2.8.1 5.7.2 8.8.5 17.8 1 36.1-10.7 43-4.7 2.7-9.9 4.9-15 7.1-9.6 4-18.7 7.8-22.4 14.5-5 8.6-4.7 20.1-4.5 23.6z" fill="#000000" stroke-width="none" opacity="1" style="--darkreader-inline-fill:#000000;"></path><path id="SvgjsPath3659" d="M93.9 153.8c-.5 1.8-.4 3.4.5 5.2.8 1.6 2.1 2.7 3.9 2.9.4 0 .7-.5.5-.8-1.6-2.2-3.5-4.2-3.7-7.1 0-.7-1-.9-1.2-.2z" fill="#000000" stroke-width="none" opacity="1" style="--darkreader-inline-fill:#e8e6e3;"></path><path id="SvgjsPath3660" d="M112.5 187.5c8.8.5 18.1-.7 26.6-2.9.7-.2.6-1.4-.2-1.3-8.8 1.1-17.7 2-26.5 3.3-.5.1-.3.9.1.9z" fill="#000000" stroke-width="none" opacity="1" style="--darkreader-inline-fill:#000000;"></path><path id="SvgjsPath3661" d="M63.1 182.5c3.8.9 7.6 1.9 11.5 2.8 3.6.8 7.4 2 11.1 2.1.7 0 .8-.9.2-1.2-3.5-1.4-7.5-1.7-11.2-2.5-3.8-.7-7.5-1.3-11.3-2-.5 0-.7.7-.3.8z" fill="#000000" stroke-width="none" opacity="1" style="--darkreader-inline-fill:#000000;"></path></g><g id="svga-group-clothes-single"><path id="SvgjsPath3785" d="M63.33 170.93s-12.22 5.29-16.7 6.92c-4.48 1.63-12.63 5.91-17.11 11.2-4.48 5.29-5.09 12.63-5.7 17.92-.61 5.29.58 11.73.58 11.73h152.36s.2-14.17-2.65-22.32-5.7-9.78-14.87-15.48c-9.16-5.7-18.53-7.94-26.07-11.61 0 0-3.05 12.83-30.55 14.26-27.48 1.43-34-6.92-39.29-12.62z" fill="#ffffff" stroke-width="none" opacity="1" style="--darkreader-inline-fill:#181a1b;"></path><path id="SvgjsPath3786" d="M175.06 196.05c-2.9-8.3-5.87-10.15-14.69-15.63l-.6-.37c-5.81-3.62-11.81-5.9-17.1-7.91-3.23-1.23-6.28-2.39-9.06-3.75a1.02 1.02 0 0 0-.87 0c-.27.13-.47.38-.54.67-.03.12-3.19 12.12-29.63 13.49-11.02.58-18.6-.45-24.07-2.24-.04-.14-.21-.21-.31-.1-.46-.16-.91-.31-1.34-.48.01-.02.01-.04.02-.06.08-.25-.3-.35-.39-.11 0 .01 0 .01-.01.02-6.05-2.41-9.18-5.81-11.8-8.66l-.63-.68c-.29-.31-.74-.4-1.13-.24-.12.05-12.24 5.3-16.64 6.9-3.9 1.42-12.58 5.64-17.53 11.49-4.44 5.25-5.25 12.38-5.83 17.59l-.1.86c-.62 5.38.54 11.76.59 12.02.09.47.5.82.98.82h152.36a1 1 0 0 0 1-.99c.03-.56.19-14.42-2.68-22.64zm-4.34-4.67c-.51-.5-1.02-1-1.52-1.51.1-.08.19-.16.26-.22.46.55.87 1.12 1.26 1.73zm-1.89-1.17c.98 1.01 1.94 2.08 2.94 3.08.48 1 .94 2.12 1.4 3.42l.03.11c-1.74-1.87-3.76-3.55-5.68-5.25.51-.59.95-1.04 1.31-1.36zm-66.15-5.66c23.41-1.21 29.59-10.57 31.06-13.88.7.33 1.42.64 2.15.95-1.03 1.47-3.85 5.21-8.22 8.8-3.79 3.11-12.73 6.36-23.97 7.02.1-.66.16-1.34.25-2 .03-.19-.28-.19-.3 0-.08.66-.2 1.34-.27 2.01-.68.04-1.37.06-2.07.08.11-.96.07-1.97.08-2.92l1.29-.06zm-4.2 2.99c-.61-.01-1.22-.03-1.83-.05.07-.92.03-1.87.04-2.79.62 0 1.25 0 1.9-.02-.05.93-.14 1.92-.11 2.86zm.5-2.86c.67-.01 1.35-.03 2.04-.06-.08.95-.2 1.95-.18 2.92-.6.01-1.2.02-1.82.01.06-.95-.01-1.94-.04-2.87zm-2.73.03c-.03.91-.09 1.85-.06 2.76a65.89 65.89 0 0 1-3.39-.24c.04-.87.02-1.74.01-2.6 1.1.04 2.25.07 3.44.08zm-18.35-2.47c.39.13.8.25 1.21.37-.18.58-.36 1.18-.48 1.77-.35-.11-.7-.23-1.04-.34.11-.45.11-.94.2-1.4.04-.15.08-.27.11-.4zm1.71.51c.27.07.55.15.83.22-.1.6-.25 1.24-.31 1.86-.32-.09-.63-.18-.94-.28.18-.58.31-1.19.42-1.8zm1.26.33c1.02.25 2.11.48 3.26.67-.15.66-.3 1.35-.36 2.02a66.49 66.49 0 0 1-3.1-.79c.12-.62.14-1.29.2-1.9zm3.79.76c.58.09 1.17.18 1.78.26-.23.71-.39 1.46-.38 2.16-.43-.08-.87-.17-1.3-.26l-.39-.09c.15-.67.23-1.39.29-2.07zm2.14 1.07c.05-.25.12-.5.19-.75.45.06.92.11 1.39.15-.11.77-.22 1.55-.21 2.32-.51-.08-1.03-.17-1.55-.27.07-.48.08-.98.18-1.45zm2.02-.55c.48.05.97.09 1.47.12-.21.76-.38 1.63-.34 2.42-.46-.06-.92-.13-1.38-.2.16-.75.21-1.55.25-2.34zm1.67 1.71c.05-.53.15-1.04.28-1.55l1.56.09c-.03.85-.07 1.71-.06 2.57-.6-.06-1.2-.13-1.81-.21.01-.3 0-.6.03-.9zm-13.05-3.99c-.03.09-.07.18-.09.28-.11.45-.26 1-.24 1.5-.48-.17-.95-.34-1.41-.51.21-.55.4-1.11.57-1.68.38.14.77.28 1.17.41zm-2.2 1.08c-.4-.16-.8-.32-1.18-.48.22-.56.4-1.11.61-1.67.36.16.74.32 1.13.47-.21.56-.4 1.12-.56 1.68zm-6.64-5.73c-.52.46-.95 1.02-1.3 1.62-.5-.34-.96-.67-1.4-1 .55-.48 1.12-.97 1.64-1.48.34.28.69.57 1.06.86zm.33.25c.4.3.82.6 1.26.89-.36.33-.68.72-1 1.09l-.33.39c-.45-.27-.88-.54-1.29-.82.4-.57.86-1.07 1.36-1.55zm.65 2.22c.32-.36.66-.72.93-1.12.3.19.61.39.93.58-.46.42-.86.94-1.18 1.49a30.4 30.4 0 0 1-1.01-.57c.1-.13.22-.25.33-.38zm2.29-.29c.72.41 1.49.8 2.31 1.18-.27.54-.49 1.11-.59 1.69-1.06-.47-2.05-.95-2.96-1.43.38-.52.8-.97 1.24-1.44zm-4.71-3.37c-.55.49-1.08 1.03-1.6 1.55-.67-.52-1.26-1.03-1.78-1.51.27-.35.56-.67.89-.96.27-.23.56-.42.85-.61.51.5 1.05 1.01 1.64 1.53zm-1.98-1.88c-.66.4-1.24 1.03-1.68 1.65-.67-.64-1.21-1.23-1.63-1.74.33-.23.65-.47.97-.71.31-.23.63-.45.94-.68.44.49.91.98 1.4 1.48zm-2.11-2.24.14.16c.07.08.14.15.21.23-.36.26-.71.54-1.06.8l-.81.6c-.26-.33-.48-.63-.64-.87.92-.38 1.67-.7 2.16-.92zm-34.94 21.39c3.3 2.32 6.88 4.55 10.66 6 .42.86.84 1.79 1.24 2.78-3.8-2.44-8.08-4.62-12.15-6.46-.21-.09-.38.18-.18.31 3.94 2.51 8.31 5 12.62 6.88.35.91.69 1.86 1.01 2.87-4.79-2.96-10-5.52-15.06-8.01.58-2.22 1.42-4.4 2.68-6.38 2.36 1.56 4.76 3.26 7.31 4.42.17.08.4-.15.22-.29-2.21-1.75-4.8-3.12-7.27-4.52.24-.35.49-.69.75-1.02 1.39.84 2.81 1.74 4.29 2.36 1.28 1.53 2.75 3.62 4.15 6.34-3.39-1.84-6.81-3.56-10.08-5.64-.21-.17-.41.2-.19.36zm2.17-3.83c.17-.2.36-.4.54-.6.43.32 1.27 1.01 2.32 2.12-.93-.55-1.9-1.04-2.86-1.52zm-5.05 28.02c-.09-.6-.22-1.5-.33-2.57.27.18.53.37.83.48.19.07.33-.2.2-.34-.29-.29-.68-.47-1.03-.69a.21.21 0 0 1-.06-.04c-.06-.64-.11-1.33-.15-2.05 2.35 1.98 4.97 3.93 7.81 5 .17.06.25-.19.12-.28-2.66-1.83-5.42-3.37-7.96-5.37-.05-1.15-.05-2.35.03-3.51 5.06 3.02 10.09 6.25 15.34 8.91.21.11.39-.19.19-.32-4.95-3.29-10.31-6.1-15.47-9.05-.01-.01-.02 0-.03 0 .02-.27.05-.53.08-.79l.1-.86c.28-2.47.59-5.22 1.27-7.94 4.87 2.8 9.89 5.66 15.01 7.97.1.05.2 0 .25-.07.53 1.69 1 3.52 1.41 5.51-5.55-3.1-11.15-6.03-16.6-9.31-.25-.15-.47.23-.23.39 5.33 3.59 11.04 7.02 16.97 9.57.23 1.19.43 2.43.61 3.73-5.98-3.51-12.01-6.6-17.65-10.69-.21-.15-.4.19-.2.35 5.39 4.15 11.38 8.26 17.81 10.59.03.01.05 0 .07 0 .06.46.12.92.17 1.39H25.25zm20.56 0c-2.15-19.99-10.98-28.11-13.53-30.06 4.49-4.18 10.97-7.49 14.7-8.85 2.71-.99 8.13-3.26 12.08-4.94 1.5 2.4 7.65 10.32 25.28 14.1a73.48 73.48 0 0 0 15.4 1.63c13.64 0 24.62-3.84 29.22-7.62 5-4.11 8-8.31 8.84-9.57 1.36.54 2.75 1.07 4.18 1.62 5.46 2.08 11.11 4.23 16.75 7.74l.6.37c4.04 2.51 6.74 4.2 8.76 6.08-.7.55-1.94 1.69-3.35 3.62-.1.03-.18.12-.17.23-3.01 4.21-6.75 12.03-7.84 25.65H45.81zm119.12 0c-1.79-1.72-3.73-3.28-5.65-4.85.14-.98.3-1.93.47-2.84 2.53 2.85 5.37 5.59 8.57 7.69h-3.39zm-3.55 0c-.74-.73-1.62-1.34-2.47-1.94.09-.83.19-1.64.3-2.42 1.71 1.5 3.43 3 5.24 4.36h-3.07zm-2.52-1.47c.61.52 1.24 1.03 1.9 1.47h-2.04c.04-.5.09-.99.14-1.47zm10.35 1.47c-3.34-2.56-6.52-5.13-9.35-8.27.19-.97.4-1.9.62-2.78 3.51 4.03 7.52 7.91 12.05 10.78.21.13.47-.19.27-.35-4.28-3.46-8.43-6.85-12.19-10.89-.01-.01-.01 0-.02-.01a49 49 0 0 1 .96-3.3c4 3.23 7.92 6.59 12.08 9.62.16.12.37-.15.22-.28-3.91-3.39-8.09-6.46-12.16-9.65-.01-.01-.02 0-.03-.01.5-1.48 1.02-2.81 1.56-4 3.48 3.92 7.31 7.78 11.67 10.7.18.12.39-.15.23-.29-3.99-3.56-8.02-6.94-11.7-10.83.39-.85.79-1.62 1.19-2.33 3.09 3.13 6.11 6.5 9.53 9.22.18.14.4-.07.25-.25-2.82-3.39-6.3-6.35-9.53-9.39.39-.66.76-1.26 1.13-1.79 2.55 2.64 5.08 5.41 7.93 7.66.17.13.37-.07.24-.24-2.31-2.84-5.16-5.34-7.87-7.85.32-.45.63-.85.93-1.21 2.02 1.95 4.01 4.01 6.25 5.68 2.06 6.71 2.29 16.89 2.3 20.08h-6.56z" fill="#000000" stroke-width="none" opacity="1" style="--darkreader-inline-fill:#000000;"></path></g><g id="svga-group-head" transform="matrix(1,0,0,1,0,0)"><g id="svga-group-ears-left-move" transform="matrix(1,0,0,1,0,0)"><g id="svga-group-ears-left"><path id="SvgjsPath3676" d="M60.8 80.5c-.2-.3-3.3-4.3-5.9-6.7s-3.4-2.4-4.6-.9c-1.3 1.5-2.9 9.1-2.5 12.4.4 3.4 3.6 8.7 5.2 11.7 1.7 3 3.3 6.7 5.1 6.3 1.9-.4 4.4-4.6 5.7-7.7 1.2-3.1.6-10.9-3-15.1z" fill="#ffffff" stroke-width="none" opacity="1" style="--darkreader-inline-fill:#181a1b;"></path><path id="SvgjsPath3677" d="M52.9 98.9c-.3-.5-.5-1-.8-1.4l-.6-1c-1.8-3.1-4.4-7.8-4.8-11-.4-3.5 1.2-11.4 2.7-13.2.6-.7 1.2-1.3 2.2-1.4 1.2-.1 2.3.7 3.9 2.2 1.6 1.4 3.5 3.6 5.8 6.5l.2.3c3.9 4.6 4.5 12.8 3.2 16.1-1.1 3-3.9 7.8-6.4 8.3h-.5c-2 .1-3.4-2.6-4.9-5.4zm7.2-17.8s-.1-.1-.2-.3c-2.2-2.8-4.1-5-5.6-6.3-1.2-1.1-2.1-1.7-2.4-1.7-.2 0-.4.2-.8.7-1 1.2-2.6 8.4-2.3 11.7.3 2.8 2.8 7.3 4.5 10.3l.6 1c.3.5.5 1 .8 1.4.9 1.7 2.5 4.6 3.3 4.4 1.2-.2 3.6-3.7 4.9-7.1 1.1-2.8.4-10.2-2.8-14.1z" fill="#000000" stroke-width="none" opacity="1" style="--darkreader-inline-fill:#000000;"></path><path id="SvgjsPath3678" d="M50 87c-.3-2.3-.5-7.8.8-9.6 2.2-2.9 6 6.4 6.9 9.3 0 .1.1.2.1.3.2.3-.1.7-.4.6-.4-.2-.9-.6-1.3-.8-1.1-.5-1.6.5-1.3 1.8.4 1.8 1.4 2.9 2.2 4.3.1.2 0 .4-.2.3-1.6-.9-3.5-4.5-3.1-6.6.3-2 1.9-1.8 3.1-.8-.7-1.7-1.5-3.3-2.5-4.8-.6-.9-1.2-2-2.2-2.2-1.2-.2-1 .3-1.2 1.8-.8 4.8-.3 10.4 2.5 14.5.1.1 0 .2-.1.1-1.7-2.3-2.9-4.9-3.3-8.2z" fill="#000000" stroke-width="none" opacity="1" style="--darkreader-inline-fill:#000000;"></path></g></g><g id="svga-group-ears-right-move" transform="matrix(1,0,0,1,0,0)"><g id="svga-group-ears-right"><path id="SvgjsPath3679" d="M139.2 80.5c.2-.3 3.3-4.3 5.9-6.7 2.6-2.4 3.4-2.4 4.6-.9s2.9 9.1 2.5 12.4c-.4 3.4-3.6 8.7-5.2 11.7-1.7 3-3.3 6.7-5.1 6.3s-4.4-4.6-5.7-7.7c-1.2-3.1-.6-10.9 3-15.1z" fill="#ffffff" stroke-width="none" opacity="1" style="--darkreader-inline-fill:#181a1b;"></path><path id="SvgjsPath3680" d="M142.1 104.4h-.5c-2.5-.5-5.2-5.4-6.4-8.3-1.3-3.4-.7-11.5 3.2-16.1l.2-.3c2.3-2.9 4.2-5.1 5.8-6.5 1.6-1.4 2.7-2.2 3.9-2.2 1 .1 1.6.7 2.2 1.4 1.5 1.8 3.1 9.7 2.7 13.2-.4 3.2-3 7.9-4.8 11l-.6 1c-.3.5-.5.9-.8 1.4-1.4 2.7-2.8 5.4-4.9 5.4zm-2.2-23.3c-3.2 3.9-3.9 11.2-2.8 14.1 1.3 3.4 3.7 6.9 4.9 7.1.8.2 2.4-2.7 3.3-4.4.3-.5.5-1 .8-1.4l.6-1c1.7-3 4.2-7.5 4.5-10.3.4-3.3-1.3-10.5-2.3-11.7-.4-.4-.6-.7-.8-.7-.3 0-1.2.5-2.4 1.7-1.5 1.4-3.3 3.5-5.6 6.3 0 .2-.1.3-.2.3z" fill="#000000" stroke-width="none" opacity="1" style="--darkreader-inline-fill:#000000;"></path><path id="SvgjsPath3681" d="M150 87c.3-2.3.5-7.8-.8-9.6-2.2-2.9-6 6.4-6.9 9.3 0 .1-.1.2-.1.3-.2.3.1.7.4.6.4-.2.9-.6 1.3-.8 1.1-.5 1.6.5 1.3 1.8-.4 1.8-1.4 2.9-2.2 4.3-.1.2 0 .4.2.3 1.6-.9 3.5-4.5 3.1-6.6-.3-2-1.9-1.8-3.1-.8.7-1.7 1.5-3.3 2.5-4.8.6-.9 1.2-2 2.2-2.2 1.2-.2 1 .3 1.2 1.8.8 4.8.3 10.4-2.5 14.5-.1.1 0 .2.1.1 1.7-2.3 2.9-4.9 3.3-8.2z" fill="#000000" stroke-width="none" opacity="1" style="--darkreader-inline-fill:#000000;"></path></g></g><g id="svga-group-faceshape-wrap"><g id="svga-group-faceshape-single"><path id="SvgjsPath3641" d="M142.4 53.6c-2.3-11.4-15.1-28.8-42.4-28.8S63.6 38.2 59.6 48.1c-3.5 8.5-3.4 22.4-3.4 22.4s.5 29.9 11.4 48.5c10.6 17.9 32.9 33.4 52.7 12.4 24.5-26.1 23.5-60.8 23.5-60.8s.2-8.9-1.4-17z" fill="#ffffff" stroke-width="none" opacity="1" style="--darkreader-inline-fill:#181a1b;"></path><path id="SvgjsPath3642" d="M99.6 142.7c-.9 0-1.9-.1-2.9-.2-13.2-1.5-24.2-12.8-30.2-22.9C55.6 101 55 71.8 55 70.6c0-.6 0-14.3 3.5-22.9 6.6-16.2 20.1-24 41.5-24 12.3 0 23.2 3.6 31.3 10.4 6.3 5.2 10.9 12.5 12.2 19.3 1.6 7.9 1.4 16.5 1.4 17.2 0 .7.1 9.2-2.6 20.9-2.6 11-8.4 27.1-21.2 40.7-6.6 7-13.8 10.5-21.5 10.5zM100 26c-20.3 0-33.2 7.4-39.4 22.6-3.3 8.2-3.3 21.9-3.3 22 0 .3.6 29.8 11.3 47.9 5.7 9.6 16.2 20.4 28.5 21.8 8 .9 15.6-2.4 22.4-9.7 12.5-13.3 18.1-28.9 20.7-39.6 2.8-11.7 2.6-20.3 2.6-20.4 0-.1.2-8.9-1.4-16.7-1.3-6.4-5.6-13.1-11.5-18-7.8-6.5-18.1-9.9-29.9-9.9z" fill="#000000" stroke-width="none" opacity="1" style="--darkreader-inline-fill:#000000;"></path></g></g><g id="svga-group-mouth-single-move" transform="matrix(1,0,0,1,0,0)"><g id="svga-group-mouth-single"><path id="SvgjsPath3817" d="M113.06 120.65c-.29.14-.56.24-.84.34-.01 0-.01-.01-.02-.01-2.76-.78-4.09-3.51-6.88-4.24-2.03-.53-4.09.07-5.57 1.36-.96-1.17-2.54-1.53-4.11-1.13-3.23.82-4.73 4.14-8.26 4.42-.07.01-.11.04-.16.07-.14-.04-.29-.06-.43-.1-.33-.1-.47.37-.14.47.49.15.96.24 1.42.31.03.06.08.11.16.13 2.63.87 4.33 3.03 6.8 4.17 2.02.93 4.33 1.35 6.59 1.22 4.32-.25 8.06-2.62 10.16-5.98.53-.17 1.05-.37 1.56-.61.3-.14.03-.56-.28-.42zm-21.53-.48c1.94-1.45 5.67-4.76 7.9-1.66.02.02.04.02.06.04.07.15.27.25.42.1 2.43-2.33 5.66-1.82 8.07.2 1.11.93 2.12 1.83 3.48 2.37 0 0-.01 0-.01.01l-.01.01c-2.11.55-3.97.14-6.35-.24-.06-.01-.12-.01-.18-.01.11-.14.2-.3.22-.48.02-.13-.04-.26-.19-.3-.13-.03-.31.04-.33.17-.04.27-.22.49-.52.59-.16.01-.32.02-.48.05.42-.49.65-1.08.65-1.72 0-.32-.54-.32-.54 0-.01.7-.32 1.32-.91 1.78-.05.04-.06.09-.07.13-.9.25-1.79.59-2.8.66-1.02.07-1.95-.24-2.87-.53-.65-.49-1.06-1.19-1.12-1.97-.02-.31-.56-.32-.54 0 .04.63.28 1.19.66 1.69-.54-.13-1.09-.21-1.67-.14-.87.11-1.66.53-2.51.72-1.17.26-2.34.26-3.49.09 1.18-.28 2.16-.83 3.13-1.56zm8.09 6.98c-2.63-.23-4.94-1.24-6.96-2.75-1.05-.78-2.02-1.56-3.18-2.13 1.27.02 2.51-.2 3.89-.56.55-.15 1.01-.2 1.44-.19-.21.25-.41.51-.62.76-.21.25.26.5.47.25l.78-.96c.56.09 1.1.26 1.78.47.24.07.47.13.71.19-.38.38-.64.83-.77 1.33-.08.31.45.44.52.13.12-.48.37-.9.75-1.24.04-.04.04-.08.05-.12.25.04.49.06.74.07-.7 1-.92 2.17-.6 3.32.08.31.61.18.52-.13-.31-1.13-.06-2.24.7-3.18.01-.01.01-.01.01-.02.06 0 .12 0 .18-.01 1.03-.08 1.86-.51 2.83-.77.7-.19 1.32-.19 1.92-.11 1.2.51 1.99 1.59 2.03 2.8.01.31.55.32.54 0-.03-.98-.48-1.87-1.22-2.53.48.11.98.23 1.51.3 1.16.15 2.29.08 3.38-.18-2.42 3.52-6.73 5.66-11.4 5.26z" fill="#000000" stroke-width="none" opacity="1" style="--darkreader-inline-fill:#000000;"></path></g></g><g id="svga-group-eyes-left-move" transform="matrix(1,0,0,1,0,0)"><g id="svga-group-eyes-left"><g id="svga-group-eyesback-left"></g><g id="svga-group-eyesiriswrapper-left"><g id="svga-group-eyesiriscontrol-left" transform="matrix(1,0,0,1,0,0)"><g id="svga-group-eyesiris-left"><path id="SvgjsPath3752" d="M83.6 85.1c-1.1-2.1-3.5-2.9-5.7-2.2-2.4.8-4.2 3.3-3.3 5.9.5 1.4 1.6 2.6 3.1 2.9.5.1 1 .1 1.6.1.6.1 1.2 0 1.8-.2 2.6-.9 3.8-4 2.5-6.5z" fill="#ffffff" stroke-width="none" opacity="1" style="--darkreader-inline-fill:#e8e6e3;"></path><path id="SvgjsPath3753" d="M81.8 86.2c0-.1 0-.1-.1-.2-.6-1.2-2.2-1.7-3.4-1.1.3.2.5.6.6.8.2.4.6 1.1.1 1.3-.4.2-1.1 0-1.4-.2-.2-.1-.4-.3-.5-.5 0 .1-.1.1-.1.2-.1.2-.1.5-.1.7-.2.7 0 1.5.6 2.1.3.2.6.4.9.4.6.3 1.3.4 2 .1-.1-.1-.2-.3-.2-.4 0-.3.2-.6.5-.7.3-.1.6 0 .8.2.3-.3.5-.8.6-1.2.2-.5 0-1.1-.3-1.5zM79.6 92h-.4c-.5 0-1.1 0-1.6-.1-1.4-.3-2.7-1.5-3.2-3-.9-2.7 1-5.2 3.4-6.1 2.3-.8 4.8.1 5.9 2.2.6 1.2.7 2.7.2 4-.5 1.3-1.6 2.3-2.9 2.8-.4.1-.9.2-1.4.2zm-.4-.3c.6.1 1.2 0 1.8-.2 1.2-.4 2.2-1.4 2.7-2.6.5-1.2.4-2.6-.2-3.7-1-1.9-3.4-2.8-5.5-2.1-2.3.8-4.1 3.2-3.2 5.7.5 1.4 1.7 2.6 3 2.8.4.1.9.1 1.4.1z" fill="#000000" stroke-width="none" opacity="1" style="--darkreader-inline-fill:#e8e6e3;"></path></g></g></g><g id="svga-group-eyesfront-left"><path id="SvgjsPath3720" d="M79 72.1c-8.2 0-14.8 6.6-14.8 14.8s6.6 14.8 14.8 14.8 14.8-6.6 14.8-14.8c0-8.1-6.6-14.8-14.8-14.8zm4 21.1c-5.2.2-9.2-1.8-9.2-1.8s-10-6.3-3.4-8.9c6.4-2.5 14.5.2 17.2 2.8 2.7 2.6 2.3 7 2.3 7s-5 .8-6.9.9z" fill="#ffffff" stroke-width="none" opacity="1" style="--darkreader-inline-fill:#181a1b;"></path><path id="SvgjsPath3721" d="M91.6 90.8c-.3.4-.7.8-1 1.1 0 .1-.1.1-.1.1 0-.2.1-.4.1-.6.1-.1.1-.2.2-.3.2-.4.5-.8.8-1.1.2-.2-.1-.5-.3-.3-.2.2-.4.5-.7.8V90c.1-.1.2-.3.3-.4.4-.5.7-1.1 1.1-1.6.1-.2-.2-.4-.3-.2-.4.5-.8.9-1.2 1.4 0-.1 0-.2-.1-.3.1-.1.1-.3.2-.4.3-.5.7-1 1.1-1.5.1-.2-.1-.4-.3-.3-.4.5-.9.9-1.3 1.4-.1-.2-.1-.3-.2-.5.5-.5.8-1.1 1.2-1.7.1-.2-.1-.3-.3-.2-.4.4-.8.9-1.1 1.4-.1-.1-.1-.2-.2-.4.5-.5.9-1.1 1.2-1.6.1-.2-.2-.4-.3-.2-.4.4-.9.8-1.3 1.3-.1-.1-.2-.2-.3-.4 0-.1.1-.1.1-.2l.9-1.2c.1-.2-.1-.3-.2-.2-.3.3-.7.7-1 1.1l-.2.2c-.1-.1-.2-.2-.2-.3.3-.3.5-.7.7-1.1.1-.1-.1-.3-.2-.2-.2.3-.5.6-.8.9-.1-.1-.3-.2-.4-.3.2-.2.4-.4.6-.7.1-.1-.1-.3-.2-.2-.2.2-.4.5-.6.7-.1-.1-.3-.2-.4-.3.2-.2.3-.4.5-.6.1-.1-.1-.3-.2-.1-.1.2-.3.4-.4.6-.2-.1-.5-.3-.6-.4.2-.2.4-.4.5-.7.1-.3 0-.3-.3-.2-.3.2-.3.3-.7.6-.1-.1-.2-.1-.3-.2.2-.2 0-.4-.3-.3-.1 0-.1.1-.2.1-1.2-.6-2.5-1-4.1-1.4-4.1-1-7.7-.9-10.6.3-1.3.5-2.2 1.2-2.5 2.2-.4 1-.1 2.2.7 3.5 1.9 3 5.3 5.1 9.4 5.9 1.6.3 3.2.4 5.1.3 1.8-.1 3.8-.4 6-.9.2 0 .3-.2.4-.3.1.2.2.3.4.4h.2c0 .2.2.3.3.2.3-.2.6-.6.8-1l.9-1.2s-.2-.1-.3 0zm-2.3 1.3c-.1-.2-.3-.4-.6-.4h-.1c-4.2.9-7.6 1.1-10.6.6-3.8-.7-6.9-2.7-8.7-5.4-.4-.7-.9-1.7-.6-2.5.2-.6.8-1.1 1.9-1.5 2.7-1.1 6-1.1 9.9-.2 3 .7 5.1 1.7 6.6 3.2 1.9 1.7 2.7 4.1 2.2 6.2zm-19 0c-1.1-1.2-2.2-2.5-3.1-3.8-.1-.1-.3 0-.2.1 1.4 2.7 3.8 5.4 6.6 6.8.1.1.2-.1.1-.2-1.1-.9-2.3-1.8-3.4-2.9z" fill="#000000" stroke-width="none" opacity="1" style="--darkreader-inline-fill:#000000;"></path></g></g></g><g id="svga-group-eyes-right-move" transform="matrix(1,0,0,1,0,0)"><g id="svga-group-eyes-right"><g id="svga-group-eyesback-right"></g><g id="svga-group-eyesiriswrapper-right"><g id="svga-group-eyesiriscontrol-right" transform="matrix(1,0,0,1,0,0)"><g id="svga-group-eyesiris-right"><path id="SvgjsPath3754" d="M125.6 85.1c-1.1-2.1-3.5-2.9-5.7-2.2-2.4.8-4.2 3.3-3.3 5.9.5 1.4 1.6 2.6 3.1 2.9.5.1 1 .1 1.6.1.6.1 1.2 0 1.8-.2 2.5-.9 3.7-4 2.5-6.5z" fill="#ffffff" stroke-width="none" opacity="1" style="--darkreader-inline-fill:#e8e6e3;"></path><path id="SvgjsPath3755" d="M123.8 86.2c0-.1 0-.1-.1-.2-.6-1.2-2.2-1.7-3.4-1.1.3.2.5.6.6.8.2.4.6 1.1.1 1.3-.4.2-1.1 0-1.4-.2-.2-.1-.4-.3-.5-.5 0 .1-.1.1-.1.2-.1.2-.1.5-.1.7-.2.7 0 1.5.6 2.1.3.2.6.4.9.4.6.3 1.3.4 2 .1-.1-.1-.2-.3-.2-.4 0-.3.2-.6.5-.7.3-.1.6 0 .8.2.3-.3.5-.8.6-1.2.1-.5 0-1.1-.3-1.5zm-2.2 5.8h-.4c-.5 0-1.1 0-1.6-.1-1.4-.3-2.7-1.5-3.2-3-.9-2.7 1-5.2 3.4-6.1 2.3-.8 4.8.1 5.9 2.2.6 1.2.7 2.7.2 4-.5 1.3-1.6 2.3-2.9 2.8-.4.1-.9.2-1.4.2zm-.4-.3c.6.1 1.2 0 1.8-.2 1.2-.4 2.2-1.4 2.7-2.6.5-1.2.4-2.6-.2-3.7-1-1.9-3.4-2.8-5.5-2.1-2.3.8-4.1 3.2-3.2 5.7.5 1.4 1.7 2.6 3 2.8.3.1.8.1 1.4.1z" fill="#000000" stroke-width="none" opacity="1" style="--darkreader-inline-fill:#e8e6e3;"></path></g></g></g><g id="svga-group-eyesfront-right"><path id="SvgjsPath3722" d="M121 72.1c-8.2 0-14.8 6.6-14.8 14.8s6.6 14.8 14.8 14.8 14.8-6.6 14.8-14.8c0-8.1-6.6-14.8-14.8-14.8zm5.6 19.4s-3.8 2.2-9.1 2.2c-2 0-6.9-.5-6.9-.5s-.6-4.4 1.9-7.1 10.5-5.9 17-3.7c6.7 2.3-2.9 9.1-2.9 9.1z" fill="#ffffff" stroke-width="none" opacity="1" style="--darkreader-inline-fill:#181a1b;"></path><path id="SvgjsPath3725" d="M133.1 83.2c-.3.2-.6.5-.8.7v-.1c-.1-.2-.2-.3-.3-.5.3-.3.6-.7.8-.9.2-.2-.1-.6-.3-.3-.2.3-.5.5-.8.8-.1-.1-.3-.3-.5-.4.2-.2.5-.4.7-.7.2-.2 0-.5-.2-.4-.3.2-.6.4-1 .7-.2-.1-.4-.2-.7-.3.1-.1.3-.3.5-.4.2-.1 0-.5-.2-.3-.2.1-.5.3-.8.5-.2-.1-.3-.1-.5-.1.2-.2.4-.4.6-.7.2-.2-.1-.5-.3-.3-.3.2-.6.4-.9.7l-.2.2c-.2 0-.3-.1-.5-.1.3-.2.5-.5.8-.7.2-.2-.1-.4-.2-.2-.3.3-.8.5-1.1.9-.3 0-.6-.1-1-.1l.4-.4c.1-.2-.1-.4-.3-.3-.3.2-.6.4-.8.7-2 0-4.2.3-6.5.9-3.1.9-5.3 2.1-6.9 3.8-2.1 2.2-2.9 5.2-2.1 7.7.1.3.4.5.7.4.2-.1.3-.2.4-.4.1.1.2.2.4.3 2.2.4 4.2.6 6.1.6 1.8 0 3.5-.2 5-.6 3.6-.8 6.6-2.8 8.4-5.3h.1c.5-.3.9-.9 1.3-1.4.1-.2-.1-.3-.2-.2-.2.2-.4.5-.6.7 0-.1.1-.1.1-.2.1-.2.2-.3.2-.5.3-.2.5-.5.7-.8.1-.1-.1-.3-.2-.2-.1.1-.2.1-.2.2.1-.2.1-.5.2-.7.2-.2.5-.3.7-.5.1-.1-.1-.3-.2-.2-.2.1-.3.3-.5.4 0-.3 0-.6-.1-.9.3-.3.6-.6.9-.8.3-.3.1-.4-.1-.3zm-2.3 3.6c-1.6 2.8-4.7 4.9-8.4 5.8-3 .7-6.3.7-10.6 0h-.1c-.2 0-.5.2-.6.4-.6-2 .1-4.5 1.8-6.3 1.5-1.5 3.5-2.6 6.4-3.5 3.6-1.1 6.8-1.2 9.5-.4.6.1 1.5.6 1.5.6.4.3.7.6.9.9.4.7 0 1.7-.4 2.5zm-17.7 9.5c-.7-.5-1.4-1-1.9-1.6-.2-.2-.4.1-.3.2 1 1.3 2.5 2.7 4.1 2.9.3 0 .5-.3.2-.5-.7-.3-1.4-.6-2.1-1z" fill="#000000" stroke-width="none" opacity="1" style="--darkreader-inline-fill:#000000;"></path></g></g></g><g id="svga-group-facehighlight-single"></g><g id="svga-group-eyebrows-left-move" transform="matrix(1,0,0,1,0,0)"><g id="svga-group-eyebrows-left-rotate" transform="matrix(1,0,0,1,0,0)"><g id="svga-group-eyebrows-left"><path id="SvgjsPath3795" d="M70.6 67.28s-7.13 5.85-7.29 6.25c-.16.4 6.09-1.68 8.42-1.76s16.03 5.77 16.99 5.93c.96.16 2.4-4.01 2.4-4.49s-17.96-7.7-20.52-5.93z" fill="#ffffff" stroke-width="none" opacity="1" style="--darkreader-inline-fill:#181a1b;"></path><path id="SvgjsPath3796" d="m62.73 73.63.21.26c.29.33.55.27 3.24-.44 1.83-.48 4.34-1.14 5.56-1.19 1.49-.07 8.55 2.73 12.77 4.38 2.54 1 3.78 1.48 4.13 1.54.05.01.09.01.14.01.23 0 .46-.1.69-.29 1.03-.87 2.15-4.11 2.15-4.7 0-.37-.34-.54-.69-.73-1.74-.92-17.79-7.54-20.61-5.61l-.03.03c-7.23 5.93-7.38 6.31-7.44 6.45l-.12.29zm5.62-1.76-1.91-.48c.47-.39.96-.81 1.46-1.23l1.88 1.39c-.45.09-.94.2-1.43.32zm5.11-4.23.13 3.98c-.39-.11-.73-.19-1.04-.25l-1.48-3.77c.41-.14 1.19-.14 2.39.04zm.81 4.17-.14-4.06c.56.11 1.2.24 1.92.42l-1.08 3.86c-.25-.08-.48-.15-.7-.22zm1.32.43 1.09-3.9c.54.14 1.12.31 1.74.49l-2.22 3.61c-.2-.06-.41-.13-.61-.2zm1.26.44 2.24-3.64c.29.09.58.18.89.28l-1.7 3.88c-.5-.19-.97-.36-1.43-.52zm4.36-2.96c.31.1.61.21.92.31l-2.26 3.75c-.33-.12-.65-.24-.97-.36l1.71-3.9c.2.07.39.13.6.2zm-.72 4.3 2.27-3.76c.41.15.82.29 1.22.44l-1.82 3.97c-.56-.22-1.12-.44-1.67-.65zm5.43-2.59c-1.37 2.27-1.97 3.33-2.23 3.83-.31-.12-.61-.24-.91-.36l1.83-3.98c.45.18.89.34 1.31.51zm.32 4.83 1.71-4.02c.59.25 1.11.47 1.54.66l-2.2 3.77c-.32-.12-.67-.26-1.05-.41zm1.68.65 2.17-3.73c.2.1.37.18.48.25-.22.9-1.27 3.52-1.82 3.78-.12-.04-.42-.15-.83-.3zm-3.61-1.41c.37-.69 1.31-2.29 2.24-3.83.27.11.53.21.79.32l-1.72 4.03-.75-.3a9.31 9.31 0 0 1-.56-.22zM71.7 71.27c-.29.01-.64.05-1.02.11l-2.26-1.66c.73-.61 1.45-1.2 2.09-1.73l1.29 3.29c-.02-.01-.07-.01-.1-.01zm-6.88 1.51c.29-.25.63-.55 1-.86l1.17.29c-.36.09-.72.19-1.07.28-.36.09-.75.19-1.1.29z" fill="#000000" stroke-width="none" opacity="1" style="--darkreader-inline-fill:#000000;"></path></g></g></g><g id="svga-group-eyebrows-right-move" transform="matrix(1,0,0,1,0,0)"><g id="svga-group-eyebrows-right-rotate" transform="matrix(1,0,0,1,0,0)"><g id="svga-group-eyebrows-right"><path id="SvgjsPath3797" d="M129.4 67.28s7.13 5.85 7.29 6.25-6.09-1.68-8.42-1.76c-2.32-.08-16.03 5.77-16.99 5.93-.96.16-2.4-4.01-2.4-4.49s17.96-7.7 20.52-5.93z" fill="#ffffff" stroke-width="none" opacity="1" style="--darkreader-inline-fill:#181a1b;"></path><path id="SvgjsPath3798" d="M137.16 73.34c-.06-.14-.21-.52-7.44-6.45l-.03-.03c-2.81-1.93-18.86 4.69-20.61 5.61-.36.19-.69.36-.69.73 0 .59 1.12 3.83 2.15 4.7.23.19.46.29.69.29.05 0 .09 0 .14-.01.34-.06 1.58-.54 4.13-1.54 4.22-1.66 11.28-4.45 12.77-4.38 1.22.04 3.73.7 5.56 1.19 2.69.71 2.95.77 3.24.44l.21-.26-.12-.29zm-6.94-1.8 1.88-1.39c.5.42 1 .83 1.46 1.23l-1.91.48-1.43-.32zm-1.3-3.94-1.48 3.77c-.3.06-.65.14-1.04.25l.13-3.98c1.21-.18 1.99-.18 2.39-.04zm-3.88 4.43-1.08-3.86c.72-.18 1.35-.32 1.92-.42l-.14 4.06c-.23.07-.46.14-.7.22zm-1.25.42-2.22-3.61c.62-.19 1.2-.35 1.74-.49l1.09 3.9c-.19.06-.4.13-.61.2zm-2.07.74-1.7-3.88c.31-.1.6-.19.89-.28l2.24 3.64c-.46.17-.93.34-1.43.52zm-2.33-3.67 1.71 3.9c-.32.12-.64.24-.97.36l-2.26-3.75c.3-.11.61-.21.92-.31.21-.07.4-.13.6-.2zm-1.55 5.15-1.82-3.97c.4-.15.8-.29 1.22-.44l2.27 3.76c-.55.21-1.11.43-1.67.65zm-2.45-3.74 1.83 3.98c-.3.12-.6.24-.91.36-.26-.5-.86-1.56-2.23-3.83.42-.18.86-.34 1.31-.51zm-2.69 5.74-2.2-3.77c.43-.19.94-.41 1.54-.66l1.71 4.02c-.37.15-.72.29-1.05.41zm-1.46.53c-.55-.26-1.6-2.87-1.82-3.78.12-.07.28-.15.48-.25l2.17 3.73c-.4.16-.7.27-.83.3zm3.89-1.48c-.25.1-.51.2-.75.3l-1.72-4.03c.25-.1.51-.21.79-.32.93 1.54 1.88 3.14 2.24 3.83-.18.08-.37.15-.56.22zm13.06-4.45 1.29-3.29c.65.53 1.37 1.13 2.09 1.73l-2.26 1.66c-.38-.06-.73-.1-1.02-.11-.02.01-.07.01-.1.01zm5.89 1.22c-.34-.09-.7-.18-1.07-.28l1.17-.29 1 .86c-.35-.1-.74-.2-1.1-.29z" fill="#000000" stroke-width="none" opacity="1" style="--darkreader-inline-fill:#000000;"></path></g></g></g><g id="svga-group-beardwrap"><g id="svga-group-beard-single-move" transform="matrix(1,0,0,1,0,0)"><g id="svga-group-beard-single"></g></g></g><g id="svga-group-mustache-single-move" transform="matrix(1,0,0,1,0,0)"><g id="svga-group-mustache-single"></g></g><g id="svga-group-nose-single-move" transform="matrix(1,0,0,1,0,0)"><g id="svga-group-nose-single"><path id="SvgjsPath3831" d="M103.29 107.27c-1.43 1.14-6.6.84-8.09-1.16-1.49-2.01-1.23-5.37-.71-8.74.52-3.36 3.24-17.34 3.75-18.38.52-1.04 1.75-1.16 2.39 0s3.43 16.63 3.75 20.45.86 6.28-1.09 7.83z" fill="#ffffff" stroke-width="none" opacity="1" style="--darkreader-inline-fill:#181a1b;"></path><path id="SvgjsPath3832" d="M95.15 107.24c2.35 1.15 5.1 2.37 7.68 1.14 2.66-1.27 2.67-4.06 2.36-6.63-.96-7.77-2.31-15.48-3.95-23.13-.2-.94-1.65-.54-1.44.4 1.2 5.6 2.24 11.23 3.09 16.89.41 2.72 1.34 5.93.94 8.68-.62 4.25-5.38 2.6-7.91 1.36-.88-.42-1.64.87-.77 1.29z" fill="#000000" stroke-width="none" opacity="1" style="--darkreader-inline-fill:#000000;"></path></g></g><g id="svga-group-hair-front"><path id="SvgjsPath3853" d="M57.9 78.6s-3.5-3.7-3.9-6.1-.9-17.4.2-24.2 10.7-17.7 18.4-21.8 24.6-6 29.5-5.8 21.1 3.9 26.9 8.1 14.4 13.9 15.8 21.4 1.9 21.4 1.4 23-4.1 6.8-5 6.1-1.7-17-3.1-22.1-7-14.4-11.4-17.2-11.9 2.7-17.5 4.1c-5.6 1.4-14.6 1.9-21.6-1.6-6-3-12.1-4.6-15.3-2.3s-8.2 11.6-9.7 16.4c-2.2 6.8-2.6 15.7-2.8 17.5s-.7 5.1-1.9 4.5z" fill="#ffffff" stroke-width="none" opacity="1" style="--darkreader-inline-fill:#181a1b;"></path><path id="SvgjsPath3854" d="M145.8 50.1c-1.5-7.8-10.3-17.8-16.2-22-6-4.3-22.4-8.1-27.5-8.3-4.5-.2-21.9 1.5-30 5.9-7.5 4.1-17.6 15.1-18.9 22.5-1.2 7-.7 22.2-.2 24.6.5 2.5 3.8 6.1 4.2 6.5l.1.1.2.1c.5.2 1 .2 1.5 0 1.1-.6 1.5-2.3 1.8-5.2 0-.3.1-.9.2-1.7.3-3.3.8-10.2 2.6-15.7 1.5-4.6 6.4-13.8 9.3-15.9 2.5-1.8 7.7-.9 14.3 2.4 7.1 3.6 16.2 3.2 22.3 1.7 1.9-.5 3.9-1.4 5.9-2.2 4-1.8 8.2-3.6 10.7-2 4 2.5 9.6 11.5 11 16.6.7 2.5 1.2 7.9 1.7 12.6.8 8.2 1.1 9.5 1.8 10.1.2.1.4.3.8.3.2 0 .3 0 .5-.1 1.8-.6 4.8-5.4 5.3-6.8.5-2-.1-16.4-1.4-23.5zm-.5 22.9c-.3 1.2-2.3 4-3.5 5.1-.1-.5-.2-1.2-.3-2.1.2.1.5.1.7-.1.7-.6 1.2-1.5 1.4-2.4.1-.8-1.1-1.1-1.2-.3-.1.7-.4 1.3-1 1.8-.2-1.6-.4-3.4-.5-5-.5-4.8-1-10.3-1.8-13-.5-1.8-1.5-4.2-2.9-6.7.3.1.5 0 .7-.3.4-.9.8-1.9 1.2-2.8.3-.7-.8-1.4-1.1-.6-.4.9-.8 1.9-1.2 2.8v.1c-1.5-2.6-3.3-5.2-5.1-7.3h.1c1.1-.2 2.1-.7 3-1.3.7-.4 0-1.5-.6-1.1-.8.5-1.7.9-2.7 1.1-.3.1-.4.2-.4.4-.9-.9-1.8-1.7-2.7-2.2-1.1-.7-2.2-.9-3.5-.9-2.8 0-6 1.4-9.2 2.8-2 .9-3.9 1.7-5.6 2.1-1.1.3-2.4.5-3.7.7.6-.6 1-1.4 1.2-2.3.2-.8-1-1.1-1.2-.3s-.7 1.6-1.3 2.1c-.2.2-.2.4-.2.6-.5 0-1 .1-1.4.1.1-.1.1-.2.1-.3.2-.9.4-1.9.6-2.8.2-.8-1-1.1-1.2-.3-.2.9-.4 1.9-.6 2.8-.1.3.1.5.2.6-3.7.1-7.7-.3-11.3-1.6.2-.3.2-.7-.1-.9-2-1.5-3.6-3.3-5-5.4-.4-.7-1.5 0-1.1.6 1.2 1.9 2.7 3.5 4.3 4.9-.1 0-.2-.1-.3-.1-5.2-2.6-12.3-5.1-16.3-2.2-3.4 2.5-8.5 12-10.1 16.9-1.8 5.7-2.4 12.7-2.7 16.1-.1.7-.1 1.3-.1 1.6-.2 1.9-.5 2.9-.6 3.3-1.1-1.3-2.9-3.6-3.2-5-.1-.5-.2-1.7-.3-3.4.1.1.1.3.2.4.4.7 1.5.1 1.1-.6-.3-.5-.4-1.2-.3-1.8.1-.6-.7-1-1-.6-.2-5.6-.1-13.4.6-17.7.6-3.3 3.4-7.9 7.1-12.1-.3 1.1-.5 2.1-.8 3.2-.2.8 1 1.1 1.2.3l.9-3.3c.1-.5-.4-.8-.8-.8 3.1-3.4 6.8-6.6 10.2-8.5 7.3-4 23.9-5.9 29-5.7 4.8.2 20.8 3.9 26.4 7.9 5.4 3.9 14 13.6 15.4 20.7.5 2.9.9 6.7 1.2 10.4-.3-.3-1.1-.2-1.1.4 0 .7-.1 1.3-.1 2-.1.8 1.2.8 1.3 0 0-.4 0-.7.1-1.1.1 1.6.2 3.2.2 4.6-.2.1-.4.2-.4.4-.1.9-.4 1.7-1 2.4-.5.6.6 1.3 1.1.6.2-.2.3-.4.4-.6-.3 2.1-.3 3.3-.4 3.7zM92.8 39.1c-.3-.7-1.5-.4-1.2.3.7 1.7 1.8 3 3.2 4.1.6.5 1.3-.6.6-1.1-1.1-.8-2-1.9-2.6-3.3zm-11.4-3.5c-.5-.6-1.4.3-.9.9.7.8 1.4 1.7 2 2.5.5.6 1.4-.3.9-.9-.6-.8-1.3-1.6-2-2.5zm-5.7-1.2c-.3-.7-1.5-.4-1.2.3.5 1.2 1.2 2.3 2.2 3.2.6.5 1.5-.4.9-.9-.8-.7-1.5-1.5-1.9-2.6zm-2.4 1.3c-.2-.8-1.4-.4-1.2.3.1.5.3 1 .4 1.5.2.8 1.4.4 1.2-.3-.2-.6-.3-1.1-.4-1.5zm-6.1 4.4c0-.8-1.2-.8-1.3 0 0 1.3.1 2.6.6 3.8.3.8 1.5.4 1.2-.3-.3-1.2-.5-2.3-.5-3.5zm-2.6 2.7c.1-.8-1.2-.8-1.3 0-.1 1.6.1 3.1.7 4.6.3.7 1.5.4 1.2-.3-.5-1.4-.7-2.8-.6-4.3zM62 48.6c.1-.8-1.1-1.1-1.2-.3-.3 1.9-.2 3.7.4 5.6.2.8 1.4.4 1.2-.3-.5-1.7-.6-3.4-.4-5zm-3 6.5c.1 1.4.3 2.8.4 4.2.1.8 1.3.8 1.3 0-.1-1.4-.3-2.8-.4-4.2-.1-.8-1.4-.8-1.3 0zm-.6 12c-.2-.8-1.4-.4-1.2.3.2.8.4 1.7.7 2.5.2.8 1.4.4 1.2-.3-.3-.8-.5-1.6-.7-2.5zm-.7 6.3c-.2-.8-1.4-.4-1.2.3.1.5.3 1 .4 1.5.2.8 1.4.4 1.2-.3-.1-.5-.2-1-.4-1.5zm.2-11.7c.1 1.1.3 2.2.4 3.3.1.8 1.3.8 1.3 0-.1-1.1-.3-2.2-.4-3.3-.1-.8-1.4-.8-1.3 0zm11.9-28.5c.1-.8-1.1-1.1-1.2-.3-.3 1.7-.2 3.4.1 5.2.2.8 1.4.5 1.2-.3-.3-1.6-.4-3.1-.1-4.6zm-3.6 5c-.1-.9.1-1.8.4-2.6s-.9-1.1-1.2-.3c-.3 1-.5 2-.4 3 0 .7 1.2.7 1.2-.1zm-5.1 7.4c-.3-1.1-.3-2.1-.2-3.2.1-.8-1.2-.8-1.3 0-.1 1.2 0 2.4.3 3.5.2.8 1.4.4 1.2-.3zm-1.6 5.6c0-1.2 0-2.5-.1-3.7 0-.8-1.3-.8-1.3 0 0 1.2 0 2.5.1 3.7 0 .8 1.3.8 1.3 0zm-2.2 4.7c0-1.2-.1-2.5-.1-3.7 0-.8-1.3-.8-1.3 0 0 1.2.1 2.5.1 3.7.1.8 1.3.8 1.3 0zm-.6 3.8c0-.8-1.3-.8-1.3 0v1.9c0 .8 1.3.8 1.3 0v-1.9zm18.6-31.1c.5-.7-.6-1.3-1.1-.6-.7 1-1 2.2-1 3.4 0 .8 1.2.8 1.3 0 0-1 .3-1.9.8-2.8zm2.4 1.5c-.1 1-.2 2-.2 2.9-.1.8 1.2.8 1.3 0 .1-1 .2-2 .2-2.9 0-.8-1.2-.8-1.3 0zm5.6.5c.1-.8-1.2-.8-1.3 0-.1 1 .1 1.9.5 2.7.3.7 1.4.1 1.1-.6-.3-.7-.3-1.4-.3-2.1zm-.6-2.8c0-.7.2-1.4.5-2.1s-.8-1.4-1.1-.6c-.4.9-.6 1.8-.6 2.7-.1.8 1.1.8 1.2 0zm5.7 8c-.3-.7-1.4-.1-1.1.6l.9 2.1c.3.7 1.4.1 1.1-.6l-.9-2.1zm10.8 7c-1-.4-1.9-1.1-2.6-1.9-.5-.6-1.4.3-.9.9.8.9 1.7 1.6 2.8 2.1.8.3 1.5-.8.7-1.1zm10.4-4.3c-.2 1.1-.7 2.1-1.5 2.9-.5.6.3 1.5.9.9.9-1 1.5-2.2 1.8-3.5.1-.8-1.1-1.1-1.2-.3zm4.7-1c-.7 1.2-1.5 2.2-2.5 3.2-.6.5.3 1.4.9.9 1.1-1 2-2.1 2.7-3.4.4-.7-.7-1.4-1.1-.7zm5.2-1.7c-.7 1.1-1.7 2.1-2.8 2.9-.7.5 0 1.5.6 1.1 1.3-.9 2.4-2 3.3-3.3.4-.8-.7-1.4-1.1-.7zm4.8-1.1c-.6.6-1.2 1.2-1.7 1.9-.5.6.3 1.5.9.9s1.2-1.2 1.7-1.9c.5-.6-.4-1.5-.9-.9zm-28.3 3c.3 1 .9 1.8 1.7 2.5.6.5 1.5-.4.9-.9s-1.1-1.1-1.4-1.9c-.2-.8-1.4-.4-1.2.3zm-3.8-2.6c.4 1 .9 2 1.3 2.9.3.7 1.4.1 1.1-.6-.4-1-.9-2-1.3-2.9-.4-.8-1.5-.1-1.1.6zm-3-4.2c-.1-.8-1.3-.8-1.3 0 .2 1.3.5 2.6 1.1 3.8.3.7 1.4.1 1.1-.6-.4-1-.7-2.1-.9-3.2zm-1.7-1.4c-.1-1.1 0-2.1.4-3 .3-.8-.9-1.1-1.2-.3-.4 1.1-.6 2.2-.4 3.4 0 .7 1.3.7 1.2-.1zm4.4-5.7c.1-.8-1.1-1.1-1.2-.3-.1.7-.3 1.4-.4 2.1-.1.8 1.1 1.1 1.2.3.1-.7.2-1.4.4-2.1zm1.7 8.1-.9-3c-.2-.8-1.4-.4-1.2.3l.9 3c.2.8 1.4.5 1.2-.3zm4.4 1.9c-.3-.7-1.5-.4-1.2.3.4 1.1 1 2 1.8 2.8.6.6 1.4-.3.9-.9-.7-.6-1.2-1.4-1.5-2.2zm4.4 1.1v2.8c0 .8 1.2.8 1.3 0v-2.8c-.1-.8-1.3-.8-1.3 0zm-3.5-5.1c.3.6.4 1.2.3 1.8-.2.8 1 1.1 1.2.3.2-1 .1-1.9-.4-2.8-.4-.6-1.5 0-1.1.7zm-2.9 0c.1-1.3.2-2.7.3-4 .1-.8-1.2-.8-1.3 0-.1 1.3-.2 2.7-.3 4 0 .8 1.2.8 1.3 0zm3-3.5c.3 0 .7-.3.6-.6l-.3-2.1c0-.3-.3-.6-.6-.6s-.7.3-.6.6l.3 2.1c0 .3.2.6.6.6zm5.1-.5v-2.1c0-.8-1.3-.8-1.3 0v2.1c0 .8 1.3.8 1.3 0zm4.2 1.1c.3-.9.2-1.8-.2-2.6-.3-.7-1.4-.1-1.1.6.2.5.2 1.1.1 1.7-.2.7 1 1 1.2.3zm4.6.9c0-.7.1-1.3.1-2 0-.8-1.2-.8-1.3 0 0 .7-.1 1.3-.1 2 0 .8 1.2.8 1.3 0zm4.3 1.2c0-.7.1-1.3.1-2 0-.8-1.2-.8-1.3 0 0 .7-.1 1.3-.1 2 0 .8 1.2.8 1.3 0zm3.8-1c-.2.8-.3 1.6-.5 2.4s1 1.1 1.2.3c.2-.8.3-1.6.5-2.4.2-.7-1-1.1-1.2-.3zm4.5 2.3c-.2.5-.4 1-.7 1.5-.3.7.7 1.4 1.1.6.2-.5.4-1 .7-1.5.3-.7-.7-1.3-1.1-.6zm4.3 6.5c-.8.5-1.6.7-2.5.7-.8 0-.8 1.3 0 1.3 1.1 0 2.2-.3 3.1-.9.7-.5.1-1.5-.6-1.1zm4.5 5.2c-.2.8-.6 1.4-1.2 1.9s0 1.6.6 1.1c.9-.7 1.5-1.6 1.8-2.7.2-.8-1-1.1-1.2-.3zm5.2 8.7c0 1.1-.4 2-1 2.9-.5.7.6 1.3 1.1.6.7-1 1.1-2.2 1.2-3.5 0-.8-1.2-.8-1.3 0zm1.6 8.9c.3-1.2.5-2.3.8-3.5.2-.8-1-1.1-1.2-.3-.3 1.2-.5 2.3-.8 3.5-.2.7 1 1.1 1.2.3zm.5 5.3c.7-1.2 1.1-2.4 1.2-3.8 0-.8-1.2-.8-1.3 0-.1 1.1-.4 2.2-1 3.2-.4.7.7 1.3 1.1.6zm.8 2.1-1.2 3.6c-.3.8 1 1.1 1.2.3l1.2-3.6c.2-.7-1-1.1-1.2-.3zm1.6-14.4c0-.8-1.2-.8-1.3 0 0 1.2-.1 2.3-.1 3.5 0 .8 1.2.8 1.3 0 0-1.2.1-2.4.1-3.5zm-4.1-5.1c-.1.8 1.1.8 1.3 0 .2-1.4-.1-2.7-.6-3.9-.3-.7-1.4-.1-1.1.6.4 1 .5 2.1.4 3.3zm-3.3-6.6c0 .7.1 1.3.1 2 .1.8 1.3.8 1.3 0 0-.7-.1-1.3-.1-2-.1-.8-1.4-.8-1.3 0zm-2.6-2.1c-.1.8 1.1.8 1.3 0 .1-1.1 0-2.1-.4-3.1-.3-.7-1.5-.4-1.2.3.3.9.4 1.8.3 2.8zm-3.2-4.8c.2.7.3 1.3.2 2-.1.8 1.2.8 1.3 0s0-1.6-.3-2.3c-.2-.8-1.4-.5-1.2.3zm-2.4-.7c.1-.6.3-1.2.4-1.7.2-.8-1-1.1-1.2-.3-.1.6-.3 1.2-.4 1.7-.2.8 1 1.1 1.2.3zm-20 3.6c.2-.6.4-1.2.5-1.9.2-.8-1-1.1-1.2-.3-.2.6-.4 1.2-.5 1.9-.3.8.9 1.1 1.2.3zm4.3-4.2c-.3.9-.5 1.8-.8 2.7-.2.8 1 1.1 1.2.3.3-.9.5-1.8.8-2.7.2-.7-1-1-1.2-.3zm4.1 1.4c.3-.8.5-1.6.8-2.4.3-.8-1-1.1-1.2-.3-.3.8-.5 1.6-.8 2.4-.3.7.9 1.1 1.2.3zm-13.2-4.6c0 .8-.1 1.6-.1 2.4 0 .8 1.2.8 1.3 0 0-.8.1-1.6.1-2.4s-1.2-.8-1.3 0zm5.7 3c.1-.9.2-1.8.4-2.7.1-.8-1.1-1.1-1.2-.3-.1.9-.2 1.8-.4 2.7-.1.8 1.1 1.1 1.2.3z" fill="#000000" stroke-width="none" opacity="1" style="--darkreader-inline-fill:#000000;"></path></g><g id="svga-group-glasses-single-move" transform="matrix(1,0,0,1,0,0)"><g id="svga-group-glasses-single"></g></g></g></g></g><rect id="svga-credit-rect" width="200" height="15" x="0" y="185" fill="#ecf0f1" opacity="0.5" style="display: none; --darkreader-inline-fill:#dedbd6;" ></rect><text id="svga-credit-text" font-family="Avenir Next, Roboto, Helvetica, Arial, sans-serif" font-size="10px" text-anchor="start" font-weight="400" size="10px" anchor="start" weight="400" fill="#333333" x="33.40447998046875" y="182.60824704170227" style="display: none; --darkreader-inline-fill:#c8c3bc;" ><tspan id="SvgjsTspan3640" dy="13" x="33.40447998046875">Created on AvatarMaker.com</tspan></text></g><defs id="SvgjsDefs3587"></defs></svg>