<svg width="217" height="31" viewBox="0 0 217 31" fill="none" xmlns="http://www.w3.org/2000/svg">
<path d="M65.9324 20.4167C65.9324 20.213 65.9602 20.0278 66.0158 19.8611C66.0713 19.6944 66.0806 19.4815 66.0435 19.2222C66.6176 18 67.2658 16.8704 67.988 15.8333C68.7287 14.7778 69.6084 13.8519 70.6269 13.0556C70.7935 12.9259 70.9232 12.7963 71.0158 12.6667C71.1269 12.5185 71.2287 12.3796 71.3213 12.25C71.4324 12.1204 71.5528 12.0093 71.6824 11.9167C71.8121 11.8056 71.9787 11.7315 72.1824 11.6944C72.6454 11.1574 73.201 10.6667 73.8491 10.2222C74.4972 9.77778 75.1732 9.35185 75.8769 8.94444C76.5806 8.53704 77.2843 8.12037 77.988 7.69444C78.7102 7.26852 79.3584 6.80555 79.9324 6.30555C80.1361 6.43518 80.2935 6.48148 80.4047 6.44444C80.5343 6.38889 80.6639 6.37963 80.7935 6.41667C80.9602 6.76852 81.1732 7.01852 81.4324 7.16667C81.7102 7.29629 81.988 7.43518 82.2658 7.58333C82.5621 7.71296 82.8306 7.87963 83.0713 8.08333C83.3306 8.26852 83.525 8.52778 83.6547 8.86111C83.525 8.86111 83.4602 8.90741 83.4602 9C83.4787 9.09259 83.5065 9.19444 83.5435 9.30555C83.5806 9.41667 83.5991 9.51852 83.5991 9.61111C83.5991 9.7037 83.5158 9.75 83.3491 9.75C83.3491 9.87963 83.4139 9.94444 83.5435 9.94444C83.6732 9.94444 83.738 10.0093 83.738 10.1389C83.738 10.25 83.7102 10.3426 83.6547 10.4167C83.6176 10.4722 83.6176 10.5741 83.6547 10.7222C83.2102 11.0185 82.7102 11.3056 82.1547 11.5833C81.6176 11.8426 81.0435 12.1204 80.4324 12.4167C79.8398 12.713 79.2287 13.037 78.5991 13.3889C77.988 13.7222 77.3769 14.1111 76.7658 14.5556C76.1547 15 75.5343 15.4907 74.9047 16.0278C74.2935 16.5648 73.701 17.1389 73.1269 17.75C72.5528 18.3426 72.0158 18.963 71.5158 19.6111C71.0158 20.2407 70.5898 20.8611 70.238 21.4722C70.275 21.5648 70.3213 21.6481 70.3769 21.7222C70.451 21.7963 70.5065 21.8796 70.5435 21.9722C71.2472 22.0093 71.9047 22.0093 72.5158 21.9722C73.1269 21.9167 73.738 21.9537 74.3491 22.0833C74.4232 22.0278 74.4695 21.9537 74.488 21.8611C74.5065 21.7685 74.5621 21.7037 74.6547 21.6667C75.9139 21.537 77.0898 21.3333 78.1824 21.0556C79.275 20.7593 80.3861 20.463 81.5158 20.1667C81.1824 20.037 80.8861 19.9352 80.6269 19.8611C80.5158 19.75 80.5158 19.6574 80.6269 19.5833C80.7565 19.4907 80.8584 19.3981 80.9324 19.3056C80.6361 19.1389 80.3861 18.9167 80.1824 18.6389C79.9972 18.3611 79.8861 18 79.8491 17.5556C79.9787 17.4444 80.0435 17.3148 80.0435 17.1667C80.0435 17.0185 79.9787 16.8981 79.8491 16.8056C79.7565 16.7685 79.701 16.7685 79.6824 16.8056C79.6639 16.8426 79.6454 16.8796 79.6269 16.9167C79.6269 16.9537 79.6084 16.9907 79.5713 17.0278C79.5528 17.0648 79.5065 17.0648 79.4324 17.0278C79.451 16.8241 79.4972 16.6574 79.5713 16.5278C79.6454 16.3981 79.701 16.2407 79.738 16.0556L82.0435 14.5278C82.2843 14.713 82.5806 14.9074 82.9324 15.1111C83.2843 15.3148 83.6547 15.5185 84.0435 15.7222C84.4324 15.9259 84.8306 16.1389 85.238 16.3611C85.6454 16.5648 86.025 16.7685 86.3769 16.9722C86.7102 17.1204 86.9973 17.3056 87.238 17.5278C87.4787 17.7315 87.7102 17.9537 87.9324 18.1944C88.1547 18.4167 88.3769 18.6389 88.5991 18.8611C88.8213 19.0833 89.0898 19.2685 89.4047 19.4167C89.3676 19.713 89.3861 19.9537 89.4602 20.1389C89.5343 20.3241 89.5528 20.5463 89.5158 20.8056C89.1639 21.4352 88.738 21.9722 88.238 22.4167C87.738 22.8426 87.1732 23.213 86.5435 23.5278C85.9324 23.8426 85.275 24.1111 84.5713 24.3333C83.8676 24.537 83.1454 24.7407 82.4047 24.9444C81.6639 25.1296 80.9139 25.3333 80.1547 25.5556C79.4139 25.7593 78.6824 26 77.9602 26.2778C77.6454 26.2778 77.3769 26.287 77.1547 26.3056C76.9324 26.3241 76.7195 26.3519 76.5158 26.3889C76.3121 26.4259 76.1084 26.463 75.9047 26.5C75.701 26.537 75.4787 26.5648 75.238 26.5833C75.1454 26.5648 75.0806 26.5833 75.0435 26.6389C75.025 26.6944 74.988 26.7407 74.9324 26.7778C74.5621 26.8333 74.2287 26.8611 73.9324 26.8611C73.6361 26.8611 73.3861 26.8611 73.1824 26.8611C72.9232 26.8611 72.6547 26.8981 72.3769 26.9722C72.0991 27.0463 71.8398 27.0741 71.5991 27.0556C69.9324 26.9815 68.6269 26.3889 67.6824 25.2778C66.738 24.1667 66.2195 22.6389 66.1269 20.6944C66.1454 20.6019 66.1269 20.5463 66.0713 20.5278C66.0158 20.4907 65.9695 20.4537 65.9324 20.4167ZM103.45 11.3611C103.469 11.4907 103.469 11.5926 103.45 11.6667C103.45 11.7222 103.441 11.7778 103.422 11.8333C103.422 11.8889 103.422 11.9537 103.422 12.0278C103.422 12.0833 103.441 12.1759 103.478 12.3056C103.089 12.9352 102.635 13.3704 102.117 13.6111C101.617 13.8333 101.071 14 100.478 14.1111C99.8854 14.2037 99.2743 14.3056 98.6447 14.4167C98.0335 14.5278 97.4224 14.7685 96.8113 15.1389C96.5706 15.0463 96.3484 15.0463 96.1447 15.1389C95.9595 15.2315 95.6817 15.2593 95.3113 15.2222C95.2002 15.3333 95.0613 15.4167 94.8947 15.4722C94.728 15.5093 94.5613 15.5556 94.3947 15.6111C94.4687 15.7778 94.4965 15.9537 94.478 16.1389C94.478 16.3056 94.5058 16.4444 94.5613 16.5556C95.2095 16.6111 95.9224 16.6019 96.7002 16.5278C97.4965 16.4537 98.2743 16.4074 99.0335 16.3889C99.0521 16.4815 99.0428 16.5463 99.0058 16.5833C98.9687 16.6019 98.9595 16.6481 98.978 16.7222C99.1076 16.8148 99.2373 16.9352 99.3669 17.0833C99.4965 17.213 99.6261 17.3426 99.7558 17.4722C99.8854 17.6019 100.015 17.713 100.145 17.8056C100.293 17.8796 100.459 17.9074 100.645 17.8889C100.719 18.037 100.765 18.2037 100.784 18.3889C100.821 18.5556 100.802 18.7315 100.728 18.9167C100.432 19.1204 100.135 19.3333 99.8391 19.5556C99.5428 19.7593 99.228 19.9444 98.8947 20.1111C98.5798 20.2778 98.2373 20.4167 97.8669 20.5278C97.515 20.6204 97.1169 20.6574 96.6724 20.6389C96.5798 20.6389 96.5058 20.6389 96.4502 20.6389C96.4132 20.6389 96.3576 20.6111 96.2835 20.5556C96.1354 20.6481 95.9224 20.6759 95.6447 20.6389C95.3854 20.6019 95.1817 20.6296 95.0335 20.7222C94.8298 20.6296 94.5798 20.5926 94.2835 20.6111C94.0058 20.6111 93.7558 20.5741 93.5335 20.5C93.2373 20.8889 92.9687 21.3056 92.728 21.75C92.4873 22.1944 92.2743 22.6667 92.0891 23.1667C92.7187 23.2593 93.2373 23.2963 93.6447 23.2778C94.0706 23.2593 94.4687 23.2315 94.8391 23.1944C95.2095 23.1389 95.5891 23.0926 95.978 23.0556C96.3669 23 96.8576 22.9815 97.4502 23C97.8206 22.7963 98.2558 22.6667 98.7558 22.6111C99.2743 22.537 99.7465 22.4259 100.172 22.2778C100.321 22.3333 100.45 22.4352 100.561 22.5833C100.672 22.713 100.774 22.8426 100.867 22.9722C100.978 23.0833 101.089 23.1852 101.2 23.2778C101.311 23.3704 101.45 23.4074 101.617 23.3889C101.691 23.463 101.737 23.5556 101.756 23.6667C101.793 23.7593 101.821 23.8519 101.839 23.9444C101.858 24.037 101.885 24.1204 101.922 24.1944C101.978 24.25 102.061 24.2685 102.172 24.25C101.895 24.8611 101.571 25.3333 101.2 25.6667C100.848 25.9815 100.441 26.2222 99.978 26.3889C99.515 26.5556 98.9965 26.6852 98.4224 26.7778C97.8669 26.8704 97.2465 26.9815 96.5613 27.1111C96.3947 27.1481 96.2558 27.1389 96.1447 27.0833C96.0335 27.0463 95.9039 27.0278 95.7558 27.0278C95.3298 27.1204 94.8206 27.2037 94.228 27.2778C93.6354 27.3519 93.0335 27.3796 92.4224 27.3611C91.8113 27.3426 91.228 27.2593 90.6724 27.1111C90.1169 26.9815 89.6632 26.7407 89.3113 26.3889C89.1632 26.2593 89.0613 26.1111 89.0058 25.9444C88.9687 25.7593 88.8484 25.6204 88.6447 25.5278C88.6261 25.287 88.5891 25.0185 88.5335 24.7222C88.478 24.4259 88.4224 24.1204 88.3669 23.8056C88.3113 23.4722 88.265 23.1481 88.228 22.8333C88.2095 22.5185 88.228 22.2315 88.2835 21.9722C88.3391 21.6944 88.4502 21.4444 88.6169 21.2222C88.8021 21 88.8669 20.7593 88.8113 20.5C88.9039 20.4815 88.9595 20.4352 88.978 20.3611C88.9965 20.2685 89.0706 20.2315 89.2002 20.25C89.3113 19.9167 89.4317 19.6019 89.5613 19.3056C89.691 19.0093 89.8206 18.7222 89.9502 18.4444C90.0984 18.1667 90.2373 17.8889 90.3669 17.6111C90.515 17.3148 90.6539 16.9907 90.7835 16.6389C90.5243 16.3981 90.3298 16.1389 90.2002 15.8611C90.0891 15.5648 90.0058 15.2778 89.9502 15C89.8947 14.7037 89.8484 14.4074 89.8113 14.1111C89.7743 13.7963 89.7095 13.4815 89.6169 13.1667C89.8021 12.8889 90.0243 12.6667 90.2835 12.5C90.5613 12.3148 90.8576 12.1667 91.1724 12.0556C91.4873 11.9444 91.8298 11.8519 92.2002 11.7778C92.5706 11.7037 92.9595 11.6204 93.3669 11.5278C94.1076 11.287 94.765 11.1019 95.3391 10.9722C95.9317 10.8426 96.5058 10.7407 97.0613 10.6667C97.6354 10.5741 98.228 10.4907 98.8391 10.4167C99.4502 10.3426 100.145 10.2315 100.922 10.0833C101.089 10.25 101.247 10.3333 101.395 10.3333C101.469 10.1667 101.552 10.1204 101.645 10.1944C101.756 10.25 101.802 10.1944 101.784 10.0278C101.969 10.3426 102.2 10.6111 102.478 10.8333C102.774 11.037 103.098 11.213 103.45 11.3611ZM118.274 18.6667C118.255 18.8889 118.274 19.1019 118.329 19.3056C118.385 19.5093 118.449 19.713 118.524 19.9167C118.616 20.1019 118.699 20.2963 118.774 20.5C118.848 20.7037 118.903 20.9074 118.94 21.1111C118.977 21.3704 118.977 21.6574 118.94 21.9722C118.903 22.2685 118.838 22.5648 118.746 22.8611C118.653 23.1389 118.533 23.3981 118.385 23.6389C118.237 23.8611 118.061 24.0278 117.857 24.1389C117.598 24.4722 117.283 24.7315 116.912 24.9167C116.542 25.1019 116.199 25.3241 115.885 25.5833C115.681 25.713 115.449 25.8056 115.19 25.8611C114.949 25.9167 114.699 25.9722 114.44 26.0278C114.237 26.1389 113.996 26.2593 113.718 26.3889C113.44 26.5 113.153 26.6111 112.857 26.7222C112.561 26.8148 112.264 26.8889 111.968 26.9444C111.672 26.9815 111.412 26.9907 111.19 26.9722C110.635 27.1759 110.088 27.3056 109.551 27.3611C109.033 27.4352 108.422 27.3981 107.718 27.25C107.051 27.3426 106.431 27.3148 105.857 27.1667C105.301 27.0185 104.801 26.787 104.357 26.4722C103.931 26.1389 103.551 25.75 103.218 25.3056C102.903 24.8426 102.644 24.3611 102.44 23.8611C102.292 22.8056 102.329 21.8519 102.551 21C102.774 20.1296 103.088 19.3333 103.496 18.6111C103.922 17.8704 104.403 17.1944 104.94 16.5833C105.477 15.9537 105.996 15.3426 106.496 14.75C106.607 14.787 106.69 14.787 106.746 14.75C106.82 14.6944 106.885 14.6296 106.94 14.5556C106.996 14.463 107.051 14.3796 107.107 14.3056C107.181 14.2315 107.264 14.1852 107.357 14.1667C107.487 13.8889 107.672 13.6852 107.912 13.5556C108.172 13.4074 108.375 13.2037 108.524 12.9444C108.69 12.9074 108.829 12.8519 108.94 12.7778C109.051 12.7037 109.153 12.6204 109.246 12.5278C109.357 12.4352 109.468 12.3519 109.579 12.2778C109.69 12.1852 109.82 12.1204 109.968 12.0833V11.7778C110.301 11.6296 110.542 11.463 110.69 11.2778C110.857 11.0741 111.051 10.8333 111.274 10.5556C111.44 10.537 111.57 10.5278 111.662 10.5278C111.774 10.5278 111.931 10.5093 112.135 10.4722C112.283 10.213 112.412 10.0185 112.524 9.88889C112.653 9.75926 112.838 9.62037 113.079 9.47222C113.301 9.58333 113.542 9.65741 113.801 9.69444C114.079 9.73148 114.32 9.85185 114.524 10.0556C114.542 10.2407 114.598 10.3889 114.69 10.5C114.783 10.5926 114.885 10.6852 114.996 10.7778C115.107 10.8519 115.209 10.9352 115.301 11.0278C115.412 11.1204 115.487 11.25 115.524 11.4167C115.598 11.4352 115.644 11.4259 115.662 11.3889C115.699 11.3519 115.755 11.3426 115.829 11.3611C115.885 11.6204 115.949 11.7963 116.024 11.8889C116.098 11.963 116.172 12.1204 116.246 12.3611C116.153 12.5463 116.079 12.7407 116.024 12.9444C115.987 13.1296 115.875 13.2685 115.69 13.3611C115.672 13.4907 115.709 13.5648 115.801 13.5833C115.894 13.5833 115.949 13.6296 115.968 13.7222C115.987 13.8889 115.959 14.0093 115.885 14.0833C116.329 14.8056 116.727 15.5741 117.079 16.3889C117.431 17.1852 117.829 17.9444 118.274 18.6667ZM114.801 21.3056C114.875 21.1019 114.968 20.9352 115.079 20.8056C115.209 20.6759 115.283 20.4815 115.301 20.2222C115.209 20.0741 115.153 19.963 115.135 19.8889C115.116 19.7963 115.107 19.6574 115.107 19.4722C114.699 18.8981 114.348 18.287 114.051 17.6389C113.755 16.9722 113.422 16.3519 113.051 15.7778C113.014 15.8519 112.949 15.9259 112.857 16C112.764 16.0741 112.662 16.0556 112.551 15.9444C112.514 16.0926 112.449 16.2037 112.357 16.2778C112.264 16.3333 112.162 16.3611 112.051 16.3611C111.94 16.3426 111.82 16.3148 111.69 16.2778C111.579 16.2222 111.477 16.1574 111.385 16.0833C110.848 16.5093 110.311 16.9259 109.774 17.3333C109.237 17.7407 108.755 18.213 108.329 18.75C108.255 18.787 108.209 18.8056 108.19 18.8056C108.172 18.787 108.116 18.7963 108.024 18.8333C107.875 19.1852 107.69 19.5093 107.468 19.8056C107.264 20.0833 107.061 20.3704 106.857 20.6667C106.653 20.963 106.477 21.2778 106.329 21.6111C106.181 21.9444 106.098 22.3333 106.079 22.7778C106.394 23.037 106.764 23.1944 107.19 23.25C107.616 23.3056 108.051 23.3148 108.496 23.2778C108.959 23.2407 109.403 23.1852 109.829 23.1111C110.274 23.0185 110.681 22.9722 111.051 22.9722C111.829 22.787 112.496 22.5463 113.051 22.25C113.607 21.9352 114.19 21.6204 114.801 21.3056ZM119.958 24.5833C119.958 24.287 119.93 24.0278 119.875 23.8056C119.838 23.5648 119.791 23.3426 119.736 23.1389C119.699 22.9352 119.671 22.7222 119.652 22.5C119.634 22.2778 119.662 22.0185 119.736 21.7222C119.68 21.5556 119.625 21.3981 119.569 21.25C119.514 21.0833 119.458 20.9167 119.402 20.75C119.439 19.9167 119.606 19.1667 119.902 18.5C120.199 17.8148 120.56 17.1944 120.986 16.6389C121.412 16.0648 121.875 15.5463 122.375 15.0833C122.875 14.6019 123.356 14.1389 123.819 13.6944C123.912 13.787 123.977 13.8056 124.014 13.75C124.069 13.6759 124.18 13.6574 124.347 13.6944C124.365 13.5833 124.421 13.4444 124.514 13.2778C124.606 13.1111 124.717 12.963 124.847 12.8333C124.995 12.6852 125.152 12.5648 125.319 12.4722C125.486 12.3796 125.643 12.3426 125.791 12.3611C125.977 12.0093 126.254 11.7037 126.625 11.4444C127.014 11.1667 127.402 10.8981 127.791 10.6389C128.18 10.3796 128.532 10.0926 128.847 9.77778C129.162 9.46296 129.356 9.07407 129.43 8.61111H129.986C129.764 8.27778 129.662 7.93518 129.68 7.58333C129.699 7.21296 129.81 6.91667 130.014 6.69444C130.236 6.4537 130.532 6.30555 130.902 6.25C131.273 6.19444 131.699 6.28704 132.18 6.52778C132.384 6.56481 132.523 6.52778 132.597 6.41667C132.671 6.30555 132.791 6.23148 132.958 6.19444C133.81 6.56481 134.569 7.01852 135.236 7.55555C135.902 8.09259 136.504 8.7037 137.041 9.38889C137.004 9.44444 136.958 9.49074 136.902 9.52778C136.865 9.54629 136.828 9.57407 136.791 9.61111C136.754 9.62963 136.727 9.65741 136.708 9.69444C136.708 9.73148 136.745 9.77778 136.819 9.83333C137.449 10.6296 138.014 11.4815 138.514 12.3889C139.014 13.2778 139.477 14.2222 139.902 15.2222C139.995 15.9815 140.023 16.7407 139.986 17.5C139.949 18.2407 139.847 19.0278 139.68 19.8611C139.532 20.1759 139.356 20.4722 139.152 20.75C138.967 21.0093 138.764 21.2685 138.541 21.5278C138.319 21.7685 138.097 22.0185 137.875 22.2778C137.652 22.5185 137.449 22.7778 137.264 23.0556L137.736 24.1667C137.717 24.3148 137.745 24.4815 137.819 24.6667C137.893 24.8333 137.967 25.0093 138.041 25.1944C138.115 25.3611 138.171 25.5278 138.208 25.6944C138.264 25.8611 138.264 26 138.208 26.1111C138.264 26.2222 138.384 26.2593 138.569 26.2222C138.495 26.2593 138.439 26.3333 138.402 26.4444C138.384 26.5556 138.477 26.5926 138.68 26.5556C138.643 26.7593 138.56 26.9907 138.43 27.25C138.301 27.5093 138.134 27.75 137.93 27.9722C137.727 28.213 137.477 28.4074 137.18 28.5556C136.902 28.7222 136.588 28.8056 136.236 28.8056C135.865 28.6204 135.569 28.4352 135.347 28.25C135.143 28.0648 134.893 27.8426 134.597 27.5833L133.569 25.1667C132.217 25.7778 130.773 26.2778 129.236 26.6667C127.699 27.037 126.069 27.2685 124.347 27.3611C123.421 27.1019 122.578 26.75 121.819 26.3056C121.06 25.8611 120.439 25.287 119.958 24.5833ZM127.097 17.25C126.282 17.9167 125.541 18.6944 124.875 19.5833C124.227 20.4722 123.699 21.4444 123.291 22.5C123.458 22.5926 123.662 22.6481 123.902 22.6667C124.143 22.6852 124.365 22.7222 124.569 22.7778C125.625 22.4815 126.708 22.2037 127.819 21.9444C128.949 21.6667 130.032 21.3241 131.069 20.9167C130.643 20.3981 130.236 19.8981 129.847 19.4167C129.477 18.9352 129.18 18.4537 128.958 17.9722C129.014 17.8611 129.06 17.7315 129.097 17.5833C129.152 17.4352 129.217 17.287 129.291 17.1389C129.365 16.9907 129.467 16.8611 129.597 16.75C129.727 16.6389 129.902 16.5833 130.125 16.5833C130.458 16.713 130.847 16.787 131.291 16.8056C131.754 16.8241 132.171 16.8704 132.541 16.9444C132.912 17.2037 133.236 17.5278 133.514 17.9167C133.791 18.287 134.069 18.6574 134.347 19.0278C134.754 18.6574 135.106 18.25 135.402 17.8056C135.699 17.3426 135.921 16.8241 136.069 16.25C135.958 15.9537 135.819 15.6204 135.652 15.25C135.486 14.8796 135.291 14.5185 135.069 14.1667C134.865 13.8148 134.625 13.5 134.347 13.2222C134.088 12.9444 133.801 12.7593 133.486 12.6667C133.338 12.6296 133.236 12.6574 133.18 12.75C133.143 12.8241 133.032 12.8333 132.847 12.7778C131.847 13.5 130.847 14.213 129.847 14.9167C128.847 15.6019 127.93 16.3796 127.097 17.25ZM156.392 11.1944C156.429 11.6019 156.494 11.9537 156.587 12.25C156.679 12.5463 156.781 12.8333 156.892 13.1111C156.985 13.3704 157.068 13.6296 157.142 13.8889C157.235 14.1296 157.3 14.4259 157.337 14.7778C157.189 15.2593 157.078 15.7037 157.004 16.1111C156.948 16.5185 156.883 16.9444 156.809 17.3889C156.513 18.037 156.226 18.6111 155.948 19.1111C155.67 19.6111 155.448 20.0463 155.281 20.4167C155.189 20.5093 155.105 20.6204 155.031 20.75C154.976 20.8611 154.911 20.9815 154.837 21.1111C154.8 21.1667 154.754 21.25 154.698 21.3611C154.642 21.4722 154.596 21.5463 154.559 21.5833L154.004 21.3889L153.892 22.0833L153.504 22.1944L153.226 22.5278C152.874 23.1389 152.504 23.6574 152.115 24.0833C151.726 24.4907 151.281 24.8611 150.781 25.1944C150.3 25.5093 149.744 25.8056 149.115 26.0833C148.504 26.3611 147.809 26.6667 147.031 27C146.717 26.963 146.439 26.9444 146.198 26.9444C145.976 26.9259 145.763 26.9074 145.559 26.8889C145.207 26.8889 144.772 26.8611 144.254 26.8056C144.198 26.6574 144.115 26.5556 144.004 26.5C143.892 26.4444 143.791 26.4167 143.698 26.4167C143.383 26.2685 143.142 26.0556 142.976 25.7778C142.828 25.4815 142.679 25.1667 142.531 24.8333C142.439 24.6296 142.346 24.4444 142.254 24.2778C142.161 24.0926 142.059 23.9074 141.948 23.7222L142.42 23.5833L141.809 22.9167C141.772 22.8611 141.726 22.8148 141.67 22.7778C141.615 22.7222 141.568 22.6667 141.531 22.6111L141.504 22.1667C141.448 20.8889 141.42 19.7222 141.42 18.6667C141.439 17.5926 141.587 16.6389 141.865 15.8056V15.5C141.92 15.0926 141.976 14.7593 142.031 14.5C142.087 14.2222 142.133 13.963 142.17 13.7222C142.226 13.3148 142.309 12.9352 142.42 12.5833C142.679 12.5278 142.874 12.4259 143.004 12.2778C143.133 12.1111 143.244 11.963 143.337 11.8333C143.596 11.8148 143.772 11.8519 143.865 11.9444C143.957 12.037 144.05 12.1852 144.142 12.3889C144.235 12.5556 144.346 12.7407 144.476 12.9444C144.624 13.1481 144.837 13.3056 145.115 13.4167C145.152 13.5648 145.198 13.7222 145.254 13.8889C145.328 14.037 145.402 14.2037 145.476 14.3889C145.624 14.7037 145.754 15.037 145.865 15.3889C145.994 15.7222 146.068 16.0463 146.087 16.3611C145.902 16.713 145.754 17.1204 145.642 17.5833C145.55 18.0463 145.485 18.5185 145.448 19C145.429 19.463 145.439 19.9167 145.476 20.3611C145.531 20.787 145.615 21.1481 145.726 21.4444L145.892 21.8056L146.365 21.75C146.92 21.6019 147.42 21.4444 147.865 21.2778C148.328 21.0926 148.754 20.8796 149.142 20.6389C149.531 20.3981 149.902 20.1204 150.254 19.8056C150.605 19.4722 150.976 19.0926 151.365 18.6667C151.754 18.2407 152.087 17.7593 152.365 17.2222C152.661 16.6667 152.902 16.0926 153.087 15.5C153.291 14.9074 153.439 14.3241 153.531 13.75C153.642 13.1574 153.717 12.6019 153.754 12.0833C154.068 11.9722 154.226 11.75 154.226 11.4167L154.17 11.1111C154.096 11 154.096 10.8704 154.17 10.7222C154.281 10.3704 154.541 10.1019 154.948 9.91667C155.244 10.1019 155.504 10.3056 155.726 10.5278C155.967 10.75 156.189 10.9722 156.392 11.1944ZM162.105 25.0556C162.197 25.6111 162.16 26.0463 161.994 26.3611C161.845 26.6759 161.623 26.9074 161.327 27.0556C161.049 27.2222 160.725 27.3148 160.355 27.3333C159.984 27.3519 159.632 27.3333 159.299 27.2778C159.114 27.0185 158.947 26.6944 158.799 26.3056C158.651 25.9167 158.512 25.5185 158.382 25.1111C158.253 24.6852 158.132 24.2685 158.021 23.8611C157.929 23.4537 157.845 23.0926 157.771 22.7778C157.864 22.5556 157.919 22.3056 157.938 22.0278C157.975 21.7315 157.994 21.4352 157.994 21.1389C158.012 20.8426 158.021 20.5463 158.021 20.25C158.04 19.9352 158.068 19.6389 158.105 19.3611C158.234 18.5833 158.419 17.8426 158.66 17.1389C158.919 16.4352 159.123 15.7037 159.271 14.9444C159.308 14.7778 159.29 14.6204 159.216 14.4722C159.16 14.3241 159.151 14.1852 159.188 14.0556C159.207 13.9815 159.262 13.9352 159.355 13.9167C159.447 13.8796 159.503 13.8148 159.521 13.7222C159.577 13.5185 159.586 13.3519 159.549 13.2222C159.531 13.0926 159.568 12.9352 159.66 12.75C159.753 12.6019 159.864 12.3889 159.994 12.1111C160.142 11.8148 160.197 11.5093 160.16 11.1944C160.327 11.0833 160.484 10.9537 160.632 10.8056C160.781 10.6574 160.929 10.5278 161.077 10.4167C161.244 10.287 161.419 10.1759 161.605 10.0833C161.808 9.99074 162.049 9.94444 162.327 9.94444C162.475 10.1296 162.568 10.3333 162.605 10.5556C162.66 10.7778 162.707 11 162.744 11.2222C162.799 11.4444 162.873 11.6574 162.966 11.8611C163.058 12.0463 163.216 12.1944 163.438 12.3056C163.438 12.4537 163.438 12.6389 163.438 12.8611C163.438 13.0833 163.447 13.3056 163.466 13.5278C163.484 13.7315 163.521 13.9259 163.577 14.1111C163.651 14.2778 163.762 14.3889 163.91 14.4444C163.577 15.3333 163.262 16.213 162.966 17.0833C162.688 17.9537 162.457 18.8333 162.271 19.7222C162.086 20.5926 161.966 21.4722 161.91 22.3611C161.873 23.25 161.938 24.1481 162.105 25.0556ZM167.9 28.0833C167.808 28.0463 167.706 28.0093 167.595 27.9722L167.261 27.3611L166.817 27.6944C166.687 27.6204 166.585 27.5463 166.511 27.4722C166.437 27.4167 166.354 27.3426 166.261 27.25C166.058 27.1019 165.882 26.9537 165.734 26.8056C165.585 26.6389 165.502 26.4815 165.484 26.3333L165.456 26.0556L165.178 26C165.085 25.7407 165.011 25.5556 164.956 25.4444C164.9 25.3148 164.808 25.213 164.678 25.1389C164.567 24.213 164.604 23.4444 164.789 22.8333C164.974 22.2037 165.252 21.537 165.622 20.8333C165.845 20.7593 166.039 20.6574 166.206 20.5278C166.391 20.3981 166.558 20.2685 166.706 20.1389C166.854 20.0093 167.002 19.8981 167.15 19.8056C167.298 19.6944 167.437 19.6296 167.567 19.6111L167.817 19.4722C168.132 19.1019 168.511 18.7778 168.956 18.5C169.4 18.2037 169.863 17.9074 170.345 17.6111C170.734 17.3889 171.122 17.1574 171.511 16.9167C171.919 16.6574 172.28 16.3796 172.595 16.0833C172.743 16.1019 172.872 16.0741 172.984 16C173.058 15.9074 173.095 15.787 173.095 15.6389C173.132 15.6019 173.169 15.5741 173.206 15.5556C173.261 15.5185 173.308 15.4815 173.345 15.4444C173.474 15.3519 173.65 15.2407 173.872 15.1111C174.095 14.9815 174.243 14.8148 174.317 14.6111L174.928 14.0278L174.095 14.0556C173.669 14.0741 173.215 14.1019 172.734 14.1389C172.271 14.1759 171.872 14.213 171.539 14.25C171.261 14.287 170.974 14.3148 170.678 14.3333C170.382 14.3333 170.058 14.3426 169.706 14.3611C169.132 13.9907 168.715 13.4444 168.456 12.7222C168.215 11.9815 168.206 11.2593 168.428 10.5556C168.558 10.537 168.669 10.5093 168.761 10.4722C168.854 10.4167 168.947 10.3704 169.039 10.3333C169.206 10.3148 169.317 10.3148 169.372 10.3333C169.428 10.3519 169.502 10.3611 169.595 10.3611C170.113 10.2685 170.539 10.213 170.872 10.1944C171.224 10.1574 171.548 10.1389 171.845 10.1389C172.159 10.1389 172.465 10.1574 172.761 10.1944C173.058 10.213 173.345 10.2685 173.622 10.3611C174.271 10.3611 174.928 10.3333 175.595 10.2778C176.261 10.2222 176.947 10.2685 177.65 10.4167C178.15 10.25 178.641 10.2037 179.122 10.2778C179.622 10.3519 180.058 10.5741 180.428 10.9444C180.447 11.2593 180.521 11.5 180.65 11.6667C180.798 11.8148 180.984 11.9259 181.206 12C181.354 12.537 181.363 13.0093 181.234 13.4167C181.122 13.8241 180.928 14.1852 180.65 14.5C180.372 14.8148 180.039 15.1019 179.65 15.3611C179.28 15.6019 178.909 15.8333 178.539 16.0556C178.428 16.2222 178.289 16.3611 178.122 16.4722C177.974 16.5648 177.835 16.6852 177.706 16.8333C177.095 17.6111 176.391 18.2963 175.595 18.8889C174.817 19.463 174.011 20.0185 173.178 20.5556C172.585 20.9444 171.993 21.3426 171.4 21.75C170.826 22.1389 170.271 22.5648 169.734 23.0278L169.456 23.2778L169.706 23.5556C169.928 23.7778 170.187 23.8889 170.484 23.8889C170.65 23.8889 170.808 23.8704 170.956 23.8333C171.122 23.7778 171.28 23.7222 171.428 23.6667C171.576 23.6296 171.706 23.5926 171.817 23.5556C171.928 23.5 172.03 23.4722 172.122 23.4722H172.484C172.632 23.3796 172.78 23.3056 172.928 23.25C173.076 23.1944 173.224 23.1481 173.372 23.1111C173.521 23.0741 173.659 23.037 173.789 23C173.919 22.963 174.058 22.8981 174.206 22.8056C174.613 22.8056 174.993 22.75 175.345 22.6389C175.715 22.5278 176.085 22.3981 176.456 22.25C176.678 22.1574 176.891 22.0741 177.095 22C177.317 21.9259 177.539 21.8704 177.761 21.8333C177.835 21.9259 177.919 22.0093 178.011 22.0833C178.122 22.1389 178.224 22.1944 178.317 22.25C178.558 22.3981 178.687 22.537 178.706 22.6667L178.789 23.4444L179.317 22.9167C179.539 23.1019 179.659 23.3148 179.678 23.5556C179.697 23.7778 179.669 24.0741 179.595 24.4444C179.002 25.037 178.261 25.5 177.372 25.8333C176.484 26.1667 175.539 26.4907 174.539 26.8056C174.335 26.8611 174.122 26.9167 173.9 26.9722C173.697 27.0278 173.493 27.0926 173.289 27.1667L173.317 26.6944L172.706 27.0833C172.632 27.1389 172.567 27.1944 172.511 27.25C172.474 27.3056 172.437 27.3611 172.4 27.4167C171.919 27.5463 171.521 27.6389 171.206 27.6944C170.891 27.75 170.595 27.8056 170.317 27.8611C170.002 27.9352 169.706 27.9907 169.428 28.0278C169.15 28.0833 168.854 28.1111 168.539 28.1111C168.447 28.1111 168.345 28.1111 168.234 28.1111C168.122 28.1111 168.011 28.1019 167.9 28.0833ZM183.057 28.0833C182.964 28.0463 182.862 28.0093 182.751 27.9722L182.418 27.3611L181.974 27.6944C181.844 27.6204 181.742 27.5463 181.668 27.4722C181.594 27.4167 181.511 27.3426 181.418 27.25C181.214 27.1019 181.038 26.9537 180.89 26.8056C180.742 26.6389 180.659 26.4815 180.64 26.3333L180.612 26.0556L180.335 26C180.242 25.7407 180.168 25.5556 180.112 25.4444C180.057 25.3148 179.964 25.213 179.835 25.1389C179.724 24.213 179.761 23.4444 179.946 22.8333C180.131 22.2037 180.409 21.537 180.779 20.8333C181.001 20.7593 181.196 20.6574 181.362 20.5278C181.548 20.3981 181.714 20.2685 181.862 20.1389C182.011 20.0093 182.159 19.8981 182.307 19.8056C182.455 19.6944 182.594 19.6296 182.724 19.6111L182.974 19.4722C183.288 19.1019 183.668 18.7778 184.112 18.5C184.557 18.2037 185.02 17.9074 185.501 17.6111C185.89 17.3889 186.279 17.1574 186.668 16.9167C187.075 16.6574 187.437 16.3796 187.751 16.0833C187.899 16.1019 188.029 16.0741 188.14 16C188.214 15.9074 188.251 15.787 188.251 15.6389C188.288 15.6019 188.325 15.5741 188.362 15.5556C188.418 15.5185 188.464 15.4815 188.501 15.4444C188.631 15.3519 188.807 15.2407 189.029 15.1111C189.251 14.9815 189.399 14.8148 189.474 14.6111L190.085 14.0278L189.251 14.0556C188.825 14.0741 188.372 14.1019 187.89 14.1389C187.427 14.1759 187.029 14.213 186.696 14.25C186.418 14.287 186.131 14.3148 185.835 14.3333C185.538 14.3333 185.214 14.3426 184.862 14.3611C184.288 13.9907 183.872 13.4444 183.612 12.7222C183.372 11.9815 183.362 11.2593 183.585 10.5556C183.714 10.537 183.825 10.5093 183.918 10.4722C184.011 10.4167 184.103 10.3704 184.196 10.3333C184.362 10.3148 184.474 10.3148 184.529 10.3333C184.585 10.3519 184.659 10.3611 184.751 10.3611C185.27 10.2685 185.696 10.213 186.029 10.1944C186.381 10.1574 186.705 10.1389 187.001 10.1389C187.316 10.1389 187.622 10.1574 187.918 10.1944C188.214 10.213 188.501 10.2685 188.779 10.3611C189.427 10.3611 190.085 10.3333 190.751 10.2778C191.418 10.2222 192.103 10.2685 192.807 10.4167C193.307 10.25 193.798 10.2037 194.279 10.2778C194.779 10.3519 195.214 10.5741 195.585 10.9444C195.603 11.2593 195.677 11.5 195.807 11.6667C195.955 11.8148 196.14 11.9259 196.362 12C196.511 12.537 196.52 13.0093 196.39 13.4167C196.279 13.8241 196.085 14.1852 195.807 14.5C195.529 14.8148 195.196 15.1019 194.807 15.3611C194.437 15.6019 194.066 15.8333 193.696 16.0556C193.585 16.2222 193.446 16.3611 193.279 16.4722C193.131 16.5648 192.992 16.6852 192.862 16.8333C192.251 17.6111 191.548 18.2963 190.751 18.8889C189.974 19.463 189.168 20.0185 188.335 20.5556C187.742 20.9444 187.149 21.3426 186.557 21.75C185.983 22.1389 185.427 22.5648 184.89 23.0278L184.612 23.2778L184.862 23.5556C185.085 23.7778 185.344 23.8889 185.64 23.8889C185.807 23.8889 185.964 23.8704 186.112 23.8333C186.279 23.7778 186.437 23.7222 186.585 23.6667C186.733 23.6296 186.862 23.5926 186.974 23.5556C187.085 23.5 187.187 23.4722 187.279 23.4722H187.64C187.788 23.3796 187.937 23.3056 188.085 23.25C188.233 23.1944 188.381 23.1481 188.529 23.1111C188.677 23.0741 188.816 23.037 188.946 23C189.075 22.963 189.214 22.8981 189.362 22.8056C189.77 22.8056 190.149 22.75 190.501 22.6389C190.872 22.5278 191.242 22.3981 191.612 22.25C191.835 22.1574 192.048 22.0741 192.251 22C192.474 21.9259 192.696 21.8704 192.918 21.8333C192.992 21.9259 193.075 22.0093 193.168 22.0833C193.279 22.1389 193.381 22.1944 193.474 22.25C193.714 22.3981 193.844 22.537 193.862 22.6667L193.946 23.4444L194.474 22.9167C194.696 23.1019 194.816 23.3148 194.835 23.5556C194.853 23.7778 194.825 24.0741 194.751 24.4444C194.159 25.037 193.418 25.5 192.529 25.8333C191.64 26.1667 190.696 26.4907 189.696 26.8056C189.492 26.8611 189.279 26.9167 189.057 26.9722C188.853 27.0278 188.649 27.0926 188.446 27.1667L188.474 26.6944L187.862 27.0833C187.788 27.1389 187.724 27.1944 187.668 27.25C187.631 27.3056 187.594 27.3611 187.557 27.4167C187.075 27.5463 186.677 27.6389 186.362 27.6944C186.048 27.75 185.751 27.8056 185.474 27.8611C185.159 27.9352 184.862 27.9907 184.585 28.0278C184.307 28.0833 184.011 28.1111 183.696 28.1111C183.603 28.1111 183.501 28.1111 183.39 28.1111C183.279 28.1111 183.168 28.1019 183.057 28.0833Z" fill="black"/>
</svg>
